<?xml version="1.0" encoding="iso-8859-1"?>
<!-- Generator: Adobe Illustrator 19.0.0, SVG Export Plug-In . SVG Version: 6.00 Build 0)  -->
<svg version="1.1" id="Layer_1" xmlns="http://www.w3.org/2000/svg" xmlns:xlink="http://www.w3.org/1999/xlink" x="0px" y="0px"
	 viewBox="0 0 512.01 512.01" style="enable-background:new 0 0 512.01 512.01;" xml:space="preserve">
<g>
	<path style="fill:#C18140;" d="M457.535,221.244c0.012-0.045,0.016-0.065,0.012-0.065
		C457.542,221.2,457.541,221.223,457.535,221.244z"/>
	<path style="fill:#C18140;" d="M456.916,207.809c-1.941-5.999-6.44-10.69-11.895-12.017c-0.36-0.117-0.725-0.227-1.112-0.322
		c-5.301-1.296-10.03,0.413-13.62,3.725c0.058-2.131,0.084-4.254,0.1-6.394c0.009-1.084,0.143-2.167,0.108-3.25
		c0.027-0.926-0.069-1.846-0.288-2.756c-0.095-0.243-0.172-0.441-0.251-0.638c-0.117-1.681-1.384-3.492-2.787-4.226
		c-3.633-1.901-6.835-1.096-9.529,0.913c-2.949-8.25-7.115-16.392-11.906-23.502c-2.989-4.437-7.122-8.278-11.681-11.124
		c-5.233-3.265-11.185-3.988-16.993-5.683c-5.383-1.572-10.883-3.224-16.413-4.74c-0.635-0.72-1.305-1.422-2.042-2.081
		c-4.155-3.719-11.804-5.96-16.831-2.219c-2.31-0.38-4.63-0.697-6.957-0.955c-0.896-0.365-1.841-0.671-2.857-0.892
		c-3.083-0.671-5.75-0.629-8.062-0.009c-4.185-0.243-8.382-0.407-12.58-0.581c-1.183-1.148-2.47-2.158-3.879-2.978
		c-3.879-2.26-7.804-2.683-11.411-1.827c-0.702-3.109-1.954-6.04-4.298-8.353c-6.742-6.65-17.911-5.835-23.063,2.32
		c-0.909,1.44-1.521,2.964-1.975,4.531c-0.286-0.075-0.576-0.145-0.863-0.221c-0.267-1.057-0.654-2.067-1.187-2.978
		c-0.641-1.096-1.4-2.025-2.24-2.808c-1.29-5.538-3.837-10.518-9.102-13.773c-7.639-4.723-17.858-0.141-20.226,8.229
		c-0.015,0.054-0.027,0.109-0.042,0.163c0.033-1.94,0.079-3.88,0.158-5.818c0.472-11.587-2.692-21.05-15.702-22.639
		c-3.181-0.388-6.79,1.283-9.328,3.655c-2.294-3.55-6.785-5.554-11.278-5.718c-0.516-0.789-1.033-1.576-1.541-2.371
		c-1.719-2.688-3.17-6.403-5.557-8.613c-0.225-0.62-0.543-1.22-0.952-1.784c-0.906-2.842-3.053-6.062-5.784-7.222
		c-4.833-2.054-11.895-2.776-15.692,2.025c-2.6,3.287-3.791,6.467-4.022,9.577c-2.15,2.059-4.148,4.229-5.989,6.177
		c-4.781,5.059-8.929,10.809-12.71,16.792c-3.083,0.689-6.045,2.23-8.429,4.455c-4.589,4.285-6.803,9.951-9.196,15.589
		c-3.02,7.118-6.308,14.145-8.911,21.432c-1.245,3.486-2.419,7.025-3.545,10.591c-12.594,3.002-23.119,17.488-28.275,28.249
		c-4.131,8.623-7.878,17.428-10.825,26.532c-1.397,4.316-2.438,8.729-3.514,13.134c-0.516,2.113-1.172,4.275-1.703,6.456
		c-5.023-1.505-10.628-0.034-14.541,4.03c-4.919,5.11-6.774,12.318-6.188,19.333c-0.746,7.205,1.266,14.364,7.645,17.289
		c4.023,3.933,9.424,6.072,15.318,4.291c5.385-1.627,10.169-6.263,14.354-10.303c3.316-3.201,5.543-6.708,7.623-10.429
		c0.398,1.024,0.778,2.003,1.095,2.908c2.768,7.933,5.994,15.963,9.704,23.486c4.178,8.471,7.724,15.78,14.017,22.997
		c5.369,6.156,10.014,12.685,15.901,18.369c12.752,12.313,26.584,23.332,41.55,32.948c7.139,4.588,16.515,7.36,24.401,10.595
		c8.59,3.525,17.787,4.944,26.975,5.945c9.303,1.014,19.077,0.312,28.281-1.869c0.059,0.009,0.117,0.023,0.174,0.032
		c3.551,0.514,7.128,0.423,10.54,0.965c3.523,0.559,6.984,1.417,10.585,1.391c0.487-0.004,3.54-0.306,4.645-0.637
		c0.258-0.077,0.57-0.109,0.829-0.124c1.203,0.274,3.22,0.688,3.676,0.742c5.142,0.608,10.299-0.081,15.338-1.209
		c17.208-3.854,35.268-9.129,51.215-16.703c8.076-3.836,14.142-7.206,19.648-14.495c4.55-6.024,9.309-12.505,12.341-19.433
		c3.031-6.925,6.414-13.698,9.316-20.682c1.411-0.195,2.79-0.636,4.044-1.257c4.858-2.402,7.549-7.149,9.229-12.179
		c1.772-5.304,2.063-10.545,1.82-15.828c2.186-4.907,3.862-9.996,6.266-14.885c2.343-4.762,4.985-9.575,7.241-14.5
		c3.262,4.289,8.565,6.918,14.337,6.685c4.291-0.172,8.779-1.992,11.939-4.89c1.492-1.369,2.846-2.98,3.816-4.764
		c0.563-1.033,1.176-2.378,1.494-3.503c0.129-0.456,0.15-1.258,0.184-2.068c0.068-0.085,0.146-0.194,0.249-0.355
		c0.743-0.249,2.201-4.584,2.239-4.573c0.375-1.465,0.591-3.09,0.635-4.608C458.267,213.689,457.801,210.545,456.916,207.809z
		 M374.941,278.163c-0.127,0.209-0.252,0.419-0.378,0.628c0.118-1.466,0.229-2.937,0.332-4.415c0.338-0.232,0.67-0.471,0.985-0.724
		C375.54,275.14,375.216,276.649,374.941,278.163z"/>
</g>
<g>
	<path style="fill:#9E6226;" d="M393.21,144.178c-8.194-0.225-16.425,1.374-24.616,3.197c0.66-2.194-1.887-4.842-4.115-3.924
		c-4.524,1.865-10.449,0.584-15.259,1.345c-6.629,1.049-13.175,1.642-19.847,2.363c-6.538,0.706-13.099,1.541-19.675,2.132
		c1.869-1.874,1.333-5.469-1.521-6.188c-2.976-0.748-5.876-0.288-8.871-0.826c-3.416-0.613-6.193-1.14-9.731-1.126
		c-7.71,0.032-15.369-0.036-23.089,0.112c-5.539,0.106-11.325-0.047-17.113-0.58c-12.815-6.178-19.946-17.24-25.75-29.801
		c-4.111-8.896-16.869-1.148-13.055,7.63c2.086,4.801,4.427,9.509,7.099,13.995c-6.724-3.094-12.852-6.69-18.697-10.954
		c1.922-2.343,2.97-5.299,2.446-8.418c1.199-2.107,1.585-4.818,0.667-8.09c-1.009-6.297-6.577-11.633-12.904-12.081
		c-1.608-1.729-3.429-3.244-5.465-4.358c-0.462-0.253-0.929-0.462-1.401-0.646c-0.417-1.8-0.965-3.549-1.804-5.172
		c-1.161-2.246-4.218-1.853-5.47,0c-1.371,2.027-2.62,4.249-3.703,6.542c-0.903,0.624-1.718,1.369-2.417,2.212
		c-2.02-2.594-4.042-5.179-6.269-7.593c-3.983-4.323-11.66,1.392-8.254,6.368c3.8,5.554,6.507,11.936,10.098,17.692
		c-0.029,0.063-0.065,0.128-0.093,0.19c-3.208,7.079-8.193,13.344-12.91,19.567c-1.559-0.458-3.299-0.318-4.981,0.745
		c-4.425,2.794-9.33,4.183-13.892,6.634c-5.634,3.028-10.481,7.611-15.119,11.952c-9.25,8.655-18.065,19.743-24.165,30.832
		c-6.411,11.656-13.352,23.988-13.727,37.654c-0.183,6.687,1.08,15.106,5.904,20.14c0.285,0.297,0.566,0.548,0.848,0.783
		c0.44,6.991,1.642,14.085,5.312,19.437c2.779,4.052,6.741,7.01,11.135,8.057c1.454,3.037,3.228,5.959,5.406,8.762
		c2.784,3.582,5.324,7.699,7.195,11.809c2.39,5.249,5.286,8.877,8.837,13.352c6.259,7.887,11.396,16.679,18.289,24.02
		c3.507,3.734,8.022,6.081,12.218,8.891c5.005,3.351,9.158,7.472,14.869,9.684c8.149,3.154,14.482,8.22,22.7,11.686
		c4.794,2.022,9.468,4.24,14.225,6.339c5.492,2.423,11.235,2.701,17.034,3.936c5.525,1.177,11.047,2.816,16.69,3.327
		c5.824,0.527,11.662,0.597,17.491,1.004c12.425,0.867,24.585-2.121,36.879-3.515c6.336-0.719,12.27-2.059,18.329-4.103
		c6.022-2.031,12.645-3.779,18.3-6.652c2.09-1.062,0.944-4.052-1.127-4.159c-5.544-0.288-10.939-0.734-16.465-1.154
		c-5.274-0.402-10.467,1.075-15.762,0.828c-4.684-0.219-9.348-1.114-13.997-1.699c-5.243-0.66-10.337-0.139-15.596-0.23
		c-5.097-0.088-9.933-1.108-14.995-1.591c-4.943-0.472-9.981-0.822-14.789-2.035c-5.045-1.272-10.074-2.734-15.219-3.556
		c-4.78-0.763-8.182-2.159-12.578-4.202c-4.178-1.943-8.515-3.552-12.609-5.673c-3.507-1.816-6.524-4.405-10.348-6.62
		c-3.658-2.118-7.79-3.191-11.386-5.29c-4.516-2.636-8.527-6.142-13.022-8.86c-3.611-2.183-5.339-4.589-7.851-7.918
		c-2.682-3.553-5.727-6.595-8.442-10.154c-2.929-3.841-6.003-7.51-9.053-11.239c-2.451-2.998-3.735-6.988-5.906-10.32
		c-1.465-2.25-3.131-4.351-4.794-6.442c0.922,0.188,1.882,0.301,2.939,0.312c6.033,0.063,11.813-2.353,17.87-1.343
		c3.374,0.563,6.785,1.404,10.218,1.508c3.39,0.101,6.755-0.677,10.155-0.7c7.689-0.054,15.3,2.22,22.837,0.376
		c6.097-1.493,12.822-0.585,19.088-1.28c4.744-0.526,9.489,0.931,14.26-0.378c2.826-0.775,5.317-2.395,7.127-4.683
		c2.257-2.852,2.048-5.479,3.084-8.697c0.715-2.221,2.26-3.949,2.41-6.489c0.014-0.219-0.01-0.419-0.017-0.628
		c6.271,4.946,15.758,5.424,21.024-1.071c0.606-0.544,1.171-1.118,1.788-1.839c-1.299,1.519,0.469-0.258,1-0.779
		c1.747-1.715,1.524-4.361,0-6.109c-1.779-2.041-4.69-3.057-7.27-3.493c-2.638-0.445-4.63,0.652-6.572-0.587
		c-3.599-2.299-3.195-8.726-6.279-11.84c-1.804-1.821-5.023-1.88-6.822,0c-3.585,3.746-4.183,10.389-2.756,16.102
		c-0.613,0.082-1.204,0.323-1.655,0.785c-3.514,3.596-7.924,5.711-9.726,10.797c-0.366,1.035-0.388,2.122-0.56,3.18
		c-2,0.194-4.179-0.257-6.151-0.326c-2.68-0.093-4.9,0.532-7.514,0.899c-3.188,0.448-6.416-0.084-9.612-0.071
		c-3.196,0.012-5.936,0.75-8.994,1.474c-3.384,0.802-6.426-0.005-9.86-0.088c-6.988-0.17-13.988,1.767-20.865,1.454
		c-6.103-0.278-11.186-1.313-17.254-0.204c-2.788,0.51-5.308,1.175-8.043,1.844c-2.878,0.705-4.862-0.065-7.671-0.279
		c-1.23-0.093-2.464-0.004-3.638,0.248c-0.844-2.182-1.549-4.428-2.192-6.437c-3.252-10.17-7.065-20.124-9.061-30.619
		c0.334-4.95,0.778-9.894,0.722-14.86c2.322-4.917,5.006-9.719,7.842-13.966c8.183,1.413,16.412-4.488,22.761-10.223
		c9.645-8.71,19.202-18.213,26.597-28.925c3.842-5.566,7.951-11.192,11.302-17.181c10.005,11.785,20.866,20.442,35.2,26.715
		c11.895,5.205,25.569,8.323,38.932,8.802c2.053,1.003,4.125,1.911,6.189,2.645c8.081,2.875,16.774,3.653,25.225,4.713
		c12.718,1.595,25.45,1.1,38.094-0.501c9.562,2.492,20.035,1.814,29.741,0.891c14.95-1.422,44.076-3.438,46.096-23.085
		C397.545,146.031,395.244,144.233,393.21,144.178z"/>
	<path style="fill:#9E6226;" d="M332.979,244.662c-4.004-1.264-7.657-3.702-11.743-4.609c-4.346-0.965-8.828-0.119-13.184,0.23
		c-2.783,0.222-6.871,1.032-9.471,0.361c-1.022-0.263-2.523-1.599-3.727-2.041c-0.409-0.22-0.837-0.38-1.277-0.501
		c-0.1-0.249-0.222-0.527-0.394-0.87c-0.205-0.613-0.41-1.227-0.616-1.842c-0.394-1.682-0.499-3.406-0.887-5.084
		c-0.794-3.421-1.794-6.795-2.61-10.215c-1.644-6.9-2.36-14.069-5.61-20.49c-1.924-3.802-8.489-1.146-6.974,2.94
		c3.01,8.119,0.96,18.029,1.294,26.507c0.318,8.046-2.3,19.54,6.196,24.396c1.094,0.625,3.067,1.01,3.682,1.339
		c2.064,1.108,3.357,2.668,5.657,3.449c4.346,1.478,9.128,1.096,13.668,0.828c9.051-0.533,21.64,0.985,27.995-6.817
		C337.137,249.595,336.454,245.759,332.979,244.662z"/>
</g>
<path style="fill:#D4A375;" d="M221.022,230.375c-0.264-0.202-0.532-0.381-0.799-0.566c-0.049-0.203-0.108-0.403-0.188-0.593
	c0.945-4.082,1.952-8.108,1.959-12.376c0.009-5.394-0.711-10.558-1.553-15.855c-0.666-4.187-1.269-8.223-2.541-12.298
	c-2.065-6.619-6.548-8.89-12.953-10.298c-6.156-1.353-12.242-0.608-18.364,0.606c-5.532,1.096-9.387,1.436-14.958,0.404
	c-11.092-2.056-25.099-2.257-35.483,2.391c-1.717,0.768-2.94,2-3.765,3.458c-3.893-2.226-8.369-3.039-12.736-0.665
	c-2.958,1.607-4.821,4.13-5.953,7.028c-0.818,0.428-1.456,1.145-1.787,2.036c-0.836,1.019-1.429,2.181-1.622,3.413
	c-1.036,6.624,0.457,12.952,1.429,19.485c0.097,0.657,0.184,1.336,0.26,2.029c-0.037,2.062-0.087,4.119-0.225,6.147
	c-0.421,6.196-1.967,15.958,7.021,17.222c1.232,0.173,2.478,0.165,3.673-0.014c6.81,3.039,13.666,7.037,21.158,7.276
	c9.102,0.291,18.74-0.993,27.812-1.772c7.748-0.665,15.136-1.081,22.756-2.294c10.074,0.377,21.733-3.096,26.861-6.931
	C223.934,236.03,223.882,232.559,221.022,230.375z M152.274,216.7c-0.038-0.225-0.069-0.461-0.109-0.682
	c-0.15-0.817-0.316-1.648-0.493-2.481c0.598,0.985,1.317,1.833,2.102,2.605C153.276,216.327,152.776,216.512,152.274,216.7z"/>
<g>
	<path style="fill:#E6E6E6;" d="M224.832,205.592c-0.448-3.952-0.984-8.966-2.467-13.418c1.164-2.078,1.177-4.688-0.987-6.49
		c-1.549-1.291-3.094-2.214-5.071-2.41c-0.982-0.651-2.081-1.17-3.324-1.511c-0.753-0.206-4.904-1.406-2.425-0.409
		c-2.676-1.076-4.982-1.789-7.922-1.763c-3.91,0.034-7.651,1.301-11.611,1.078c-5.141-0.29-9.464-1.578-14.603-0.192
		c-4.751,1.282-7.855,2.536-12.811,2.865c-0.453,0.031-0.903,0.092-1.355,0.133c-3.617-0.241-7.275-0.23-10.9-0.24
		c-3.916-0.011-7.829-0.088-11.744-0.173c-1.971-0.498-3.965-0.893-6.022-1.012c-3.391-0.195-6.725,0.799-10.141,0.746
		c-5.29-0.016-8.336,3.422-9.154,7.409c-0.952,0.751-1.798,1.659-2.484,2.691c-3.996,5.999-2.668,13.335,0.641,19.092
		c1.005,1.232,1.067,1.359,0.183,0.38c0.125,0.592,0.252,1.184,0.377,1.778c0.189,2.086,1.052,4.356,1.44,6.414
		c0.53,2.811,0.915,5.641,1.345,8.463c-7.792,3.192-9.021,11.825-4.03,18.26c2.567,3.309,7.042,3.902,10.972,3.819
		c0.548,0.532,1.001,0.971,0.933,0.898c4.664,4.877,13.527,4.056,17.423-1.16c2.971-0.461,5.94-1.053,8.833-1.401
		c4.692-0.563,9.422-0.344,14.166-0.926c11.159-1.371,22.772,0.759,33.801-1.364c4.935-0.95,10.991-1.847,15.86-4.211
		c4.501,1.193,9.874-0.844,11.319-6.171C227.92,226.284,226.034,216.189,224.832,205.592z M164.2,206.294
		c-0.888-0.367-1.633-0.675-1.93-0.791c-0.039-0.015-0.079-0.031-0.117-0.045c0.799-0.07,1.599-0.125,2.4-0.158
		C164.43,205.633,164.301,205.969,164.2,206.294z"/>
	<path style="fill:#E6E6E6;" d="M405.091,222.307c-0.985-6.148-0.665-12.817-1.246-19.129c-0.252-2.739-0.6-5.532-0.753-8.278
		c-0.09-1.602,0.385-3.942,0.907-7.23c1.004-6.322-0.005-13.316-6.174-16.887c-6.437-3.727-13.54,0.054-20.214,0.608
		c-7.269,0.603-14.602,1.728-21.869,2.128c-7.483,0.413-15.023-0.112-22.519,0.19c-7.355,0.297-14.908,1.11-22.245,0.111
		c-5.959-0.811-12.063-4.676-18.211-3.085c-8.741,2.262-9.476,11.237-6.658,18.241c1.916,4.761,3.853,9.534,5.788,14.305
		c-0.162,4.434-0.183,8.854,0.045,13.356c0.34,6.696,1.261,13.006,8.359,15.716c5.478,2.092,11.393,2.333,17.037,3.703
		c6.542,1.589,12.98,2.831,19.761,2.715c2.88-0.049,5.716-0.899,8.574-0.848c4.114,0.074,8.313,1.039,12.501,1.128
		c6.464,0.135,12.247-0.75,18.621-1.529c6.52-0.797,13.864,1.375,20.221-0.372C403.858,235.272,406.109,228.656,405.091,222.307z"/>
</g>
<g>
	<path style="fill:#B3B3B3;" d="M402.312,178.409c-3.249,0.72-7.054-1.129-10.526-0.71c-5.055,0.609-8.753,0.686-13.763-0.471
		c-9.906-2.285-20.026-0.289-30.019-1.482c-9.465-1.129-19.34,1.688-28.934,0.586c-9.879-1.135-20.167-2.93-29.586,1.708
		c-2.688,1.325-2.827,5.158-0.919,7.129c3.52,3.637,8.848,4.669,13.689,5.507c5.567,0.963,11.21,2.294,16.815,2.923
		c5.446,0.612,11.225,0.725,16.706,0.641c2.733-0.042,5.363-0.74,8.065-0.906c2.692-0.166,5.376,0.479,8.068,0.593
		c5.561,0.237,11.111-0.482,16.672-0.335c5.592,0.146,10.754,2.079,16.412,1.443c5.175-0.582,10.187-2.402,14.065-5.983
		c1.965-1.814,5.21-4.19,6.343-6.625C406.411,180.259,404.756,177.868,402.312,178.409z"/>
	<path style="fill:#B3B3B3;" d="M206.224,187.633c-2.852-1.646-5.496-1.622-8.601-2.358c-3.617-0.858-6.759-1.63-10.493-1.929
		c-8.661-0.692-16.414-1.116-25.066,0.441c-7.469,1.343-14.584,4.089-21.969,5.613c-7.213,1.488-15.703,1.766-22.039,6.177
		c-2.016,1.403-1.945,3.931,0,5.346c6.007,4.371,15.111,2.953,22.079,2.489c7.881-0.523,16.011-3.028,23.749-4.587
		c8.823-1.777,17.351-0.672,26.205-0.607c7.516,0.055,12.367-0.509,17.145-6.743C208.152,190.273,207.411,188.318,206.224,187.633z"
		/>
</g>
<path style="fill:#FFFFFF;" d="M307.976,266.167c-8.833,5.614-19.742,7.136-30.057,7.678c-5.533,0.291-11.034,1.001-16.591,0.602
	c-4.578-0.328-8.924-1.053-13.543-0.979c-5.416,0.086-10.695-0.107-16.058-0.71c-5.228-0.587-10.222,0.722-15.395,0.02
	c-2.176-0.296-4.409-0.686-6.607-0.778c-0.988-1.151-2.1-2.186-3.422-3.015c-3.89-2.439-10.209-0.236-11.111,4.52
	c-0.575,3.034-1.575,5.834-0.161,9.333c0.603,1.493,1.49,2.896,2.598,4.087c0.684,0.735,1.742,1.415,2.725,2.154
	c0.124,0.103,0.248,0.208,0.375,0.301c0.173,0.136,0.353,0.27,0.514,0.413c1.331,3.051,2.488,6.113,4.35,8.907
	c1.941,2.913,3.03,6.379,5.351,9.019c1.941,2.208,4.622,4.035,6.848,6c5.705,5.038,11.92,8.105,19.213,10.196
	c3.405,0.977,6.674,2.488,10.095,3.335c4.525,1.121,8.277,0.131,12.711,0.114c2.484-0.01,5.754,0.956,9.013,0.208
	c3.388-0.778,6.764-2.375,9.865-3.939c6.561-3.31,11.679-8.821,17.532-13.163c5.759-4.272,11.02-9.932,15.955-15.13
	c4.168-4.391,6.449-10.287,6.161-16.319c1.095-1.757,1.425-4.036,1.608-5.983C320.511,267.022,312.77,263.12,307.976,266.167z"/>
<g>
	<path style="fill:#4D4D4D;" d="M332.707,54.7c-0.011-0.007-0.022-0.017-0.033-0.025C332.685,54.684,332.696,54.692,332.707,54.7z"
		/>
	<path style="fill:#4D4D4D;" d="M332.922,54.855c-0.071-0.052-0.147-0.102-0.215-0.154
		C332.782,54.756,332.853,54.808,332.922,54.855z"/>
	<path style="fill:#4D4D4D;" d="M452.469,116.455c-0.184-5.095-1.262-10.1-2.23-15.085c-0.493-2.536-0.732-5.174-1.344-7.682
		c-0.107-0.441-1.01-2.833-1.483-4.098c-0.009-0.043-0.015-0.087-0.022-0.131c-0.006,0.007-0.012,0.016-0.018,0.023
		c-0.041-0.109-0.076-0.204-0.108-0.291c-1.296-3.077-3.472-5.365-6.017-6.732c-0.972-1.438-1.998-2.81-3.064-4.136
		c1.65-3.902,1.316-8.59-2.228-11.511c-8.213-6.77-17.099-11.986-27.893-13.177c-2.238-0.247-4.486-0.396-6.738-0.489
		c-0.557-0.059-1.105-0.08-1.642-0.059c-2.306-0.063-4.613-0.069-6.915-0.018c-4.282,0.093-8.786-0.538-13.102-0.447
		c-0.034-0.006-0.07-0.011-0.104-0.017c-2.419-2.939-5.046-5.706-7.794-8.256c-2.086-1.935-4.292-3.75-6.54-5.521
		c-0.284-0.992-0.693-1.989-1.242-2.982c-0.609-1.1-1.316-2.148-2.063-3.168c0.027-2.15-0.418-4.319-1.384-6.271
		c-1.671-3.38-4.974-5.988-8.736-7.489c-8.882-5.974-19.672-8.954-30.492-7.138c-1.052,0.177-2.091,0.417-3.123,0.686
		c-2.555-0.659-5.136-1.181-7.737-1.44c-4.359-0.434-8.159-1.669-12.455-2.552c-6.033-1.241-12.025-0.711-18.121-0.683
		c-6.109,0.028-12.055,0.229-18.099,1.25c-10.998,1.858-22.236,4.659-33.084,7.296c-9.851,2.394-19.815,6.069-29.075,10.035
		c-4.066,1.741-8.494,1.172-12.43,3.283c-3.338,1.791-5.328,4.739-8.021,7.201c-1.821-0.127-3.691,0.006-5.512,0.345
		c-0.014-1.818,0.181-3.702,0.697-5.707c2.476-9.607-10.856-12.635-14.44-3.981c-1,2.413-1.873,5.995-2.405,10.029
		c-0.17-0.031-0.339-0.055-0.509-0.072c-1.56-0.938-3.294-1.564-5.072-1.806c-0.883-4.899-1.483-10.266-0.705-14.956
		c0.801-4.833-6.169-7.001-7.498-2.067c-0.869,3.228-0.874,6.593-1.828,9.794c-1.07,3.585-2.099,7.066-2.784,10.768
		c-1.039,5.619-1.671,11.862-0.679,17.657c-0.795-0.097-1.616-0.171-2.459-0.269c-4.362-0.507-8.833-0.89-13.136-1.525
		c-9.37-1.386-19.548-1.501-28.649,1.557c-9.159,3.078-14.866,8.273-20.56,15.86c-2.065,2.752-4.33,6.023-5.564,9.473
		c-2.515,2.782-4.704,5.796-6.469,8.152c-6.789,9.067-11.067,20.523-14.099,31.367c-0.641,2.294-1.159,4.572-1.567,6.843
		c-4.144,7.78-2.031,20.518,0.661,31.4c0.936,5.013,2.127,9.837,3.546,14.799c0.691,2.416,1.376,4.57,2.389,6.494
		c4.329,11.852,15.205,35.669,23.414,28.435c1.44-1.269,1.655-3.988,1.742-5.465c0.053-0.886,0.044-1.826-0.001-2.789
		c0.606-0.988,1.23-1.948,1.53-3.318c0.603-2.758,0.785-5.678,1.253-8.472c0.797-4.761,1.74-9.698,3.41-14.232
		c0.552-1.5,1.09-2.992,1.616-4.482c1.429-0.35,2.852-1.012,4.183-2.046c4.514-3.503,8.771-8.543,12.453-12.995
		c1.939,0.874,4.343,1.149,6.856,0.88c7.585-0.813,13.599-5.169,18.432-10.948c0.775-0.926,1.472-1.896,2.139-2.883
		c1.057,0.451,2.343,0.579,3.821,0.226c12.353-2.949,19.156-17.219,23.929-27.71c0.866-1.905,1.994-4.325,3.128-7.017
		c1.062,0.784,2.449,1.263,4.245,1.323c11.065,0.378,13.429-16.612,14.442-24.079c0.179-1.322,0.345-2.66,0.493-4.008
		c0.899,1.825,1.877,3.603,2.972,5.297c4.868,7.528,11.538,15.501,19.834,19.484c5.495,10.139,12.604,19.826,23.145,24.992
		c7.8,3.823,16.258,5.107,24.777,4.947c4.384,4.642,9.623,8.1,16.331,9.138c6.784,1.051,13.528-0.812,19.817-3.471
		c0.015,0.002,0.031,0.006,0.045,0.009c0.888,0.17,1.796,0.329,2.702,0.489c3.24,1.274,6.413,2.74,9.757,3.711
		c19.113,5.544,42.905,3.18,61.33-3.673c0.02-0.007,0.039-0.016,0.059-0.023c7.582,0.816,15.37,0.403,22.925,1.041
		c3.155,0.267,6.291,0.66,9.418,1.098c1.427,1.295,2.842,2.602,4.214,3.959c4.742,4.689,8.678,9.723,12.592,15.096
		c3.273,4.495,6.193,9.053,7.848,14.429c1.114,3.617,1.928,6.9,3.759,9.736c0.616,1.327,1.59,2.401,2.778,3.189
		c0.3,0.257,0.613,0.51,0.949,0.757l0.052-0.188c4.356,2.131,10.63,0.887,12.919-5.088c0.881-2.3,0.629-4.482-0.15-6.603
		c-0.01-0.057-0.016-0.115-0.026-0.172c0.507-0.836,0.899-1.692,1.122-2.502c1.595-5.802-0.971-10.392-3.877-14.86
		c7.568,1.172,14.63-6.108,13.261-14.38c0.039-0.143,0.081-0.335,0.125-0.62c0.163-1.041-0.029-2.398,0.002-3.455
		c0.044-1.504,0.154-3.005,0.197-4.509C450.699,131.809,452.744,124.047,452.469,116.455z M252.665,57.618
		c-0.178-1.121-0.372-2.239-0.562-3.357c0.242-0.295,0.485-0.587,0.729-0.881C252.79,54.794,252.734,56.206,252.665,57.618z"/>
	<path style="fill:#4D4D4D;" d="M458.68,107.566c-2.005-8.252-4.229-17.201-8.467-24.633c-3.246-5.694-9.448-15.501-16.865-15.097
		c-3.551,0.193-5.76,3.357-5.811,6.356c-0.24-0.029-0.487-0.068-0.723-0.095c-6.442-0.724-9.081,7.068-6.781,11.817l0.606,1.252
		c1.111,2.292,3.471,3.422,5.881,3.476c2.604,2.229,3.996,6.384,5.256,9.159c2.089,4.597,1.898,10.069,2.421,15.06
		c0.289,2.758,0.767,5.999,1.923,8.841c-0.785,4.286-1.965,8.215-3.131,12.404c-1.113,0.863-2.049,2.074-2.628,3.669
		c-2.339,6.438-3.284,13.22-3.49,20.062c-0.015,0.478,0.027,0.95,0.098,1.415c-0.568,2.182-1.172,4.348-1.857,6.477
		c-2.018,6.276,4.421,12.118,10.472,10.472c12.925-3.513,14.603-19.905,16.325-32.2c0.217-0.22,0.409-0.442,0.547-0.64
		c1.125-0.56,2.493-1.114,3.201-1.822c1.755-1.755,3.321-4.518,4.065-6.827C462.586,127.833,460.837,116.436,458.68,107.566z"/>
</g>
<g>
	<path style="fill:#333333;" d="M138.024,95.59c-3.338,2.277-7.419,3.204-10.928,5.446c-4.16,2.656-8.299,5.067-12.12,8.225
		c-0.697,0.575-1.37,1.181-2.059,1.767c0.707-1.858,1.253-3.752,1.522-5.696c0.531-3.845-2.035-6.539-5.933-5.933
		c-7.591,1.177-11.957,7.929-16.267,13.646c-4.742,6.289-8.946,12.852-12.46,19.919c-2.204,4.432-4.565,9.132-6.725,13.991
		c1.361-6.574,3.718-12.309,6.606-18.379c1.562-3.283,2.684-6.802,4.417-9.991c1.806-3.321,4.315-6.094,5.365-9.806
		c1.427-5.046,2.934-10.528-0.558-14.952c-0.741-0.939-2.139-1.28-3.391-1.121c-6.953-4.457-17.142,3.123-21.284,8.499
		c-6.411,8.322-9.118,19.333-11.17,29.476c-3.909,19.32-7.999,49.839,15.865,57.172c1.8,0.553,3.648-1.042,3.55-2.835
		c2.771,0.215,5.44-1.14,5.972-4.685c0.069-0.457,0.179-0.903,0.274-1.353c0.591-0.504,1.094-1.173,1.461-2.034
		c6.607-15.479,20.026-27.252,31.492-39.144c6.018-6.243,13.209-11.181,18.916-17.738c5.42-6.226,11.241-11.699,13.486-19.839
		C144.955,96.953,141.062,93.517,138.024,95.59z"/>
	<path style="fill:#333333;" d="M430.642,134.291c-2.489-4.598-6.146-9.178-9.492-13.204c-3.561-4.285-8.065-6.226-13.303-7.848
		c-3.214-0.995-5.876,1.127-6.857,3.795c-1.837,0.359-3.66,0.969-5.442,1.449c-2.363,0.635-4.582,1.467-6.77,2.368
		c-0.21-0.335-0.437-0.673-0.704-1.016c-1.603-2.061-4.657-2.282-6.97-1.843c-2.481,0.471-5.803-0.727-8.397-0.963
		c-4.158-0.38-8.324-0.559-12.486-0.896c-0.797-0.064-1.59-0.138-2.386-0.205c0.472-4.734-4.632-6.336-9.031-6.011
		c-6.182,0.458-12.044,1.656-18.004,2.354c-4.855-1.137-9.54-2.669-14.214-4.706c-6.405-2.792-10.956-8.692-15.402-13.884
		c-5.53-6.461-14.527,2.822-9.266,9.266c1.578,1.932,3.195,3.755,4.846,5.496c-3.159-0.962-6.264-2.073-9.263-3.394
		c-9.504-4.185-17.781-12.518-23.014-21.348c-3.029-5.11-10.789-0.564-7.957,4.651c4.846,8.923,11.062,16.733,17.723,24.353
		c4.514,5.164,10.574,8.975,16.932,11.933c-0.813-0.027-1.627-0.06-2.441-0.138c-5.151-0.489-10.458-2.154-15.434-3.579
		c-9.414-2.697-18.947-8.001-26.09-14.711c-14.603-13.72-27.159-29.304-41.259-43.452c-3.91-3.923-9.153-1.11-10.343,2.954
		c-1.414-2.108-2.885-4.178-4.452-6.18c-4.411-5.639-13.14,1.574-9.724,7.504c5.189,9.006,9.029,19.664,12.345,29.484
		c3.284,9.723,8.999,18.816,15.816,26.421c7.285,8.128,16.79,11.901,27.684,11.76c3.662-0.048,8.812-1.001,13.092-3.091
		c8.568,5.105,17.821,8.311,28.059,9.342c8.353,0.842,20.207-0.088,24.66-7.859c5.768,4.3,11.675,7.95,18.382,11.448
		c10.057,5.244,22.315,6.524,33.527,5.811c8.702-0.553,17.164-1.671,25.476-3.99c5.435,1.408,10.956,2.828,16.186,4.673
		c5.419,1.912,10.97,6.416,16.618,7.253c2.019,0.3,3.96,0.128,5.631-0.558c2.577,6.602,6.763,12.51,14.122,14.306
		c2.561,0.625,5.513-1.253,5.377-4.097C437.874,156.669,436.099,144.369,430.642,134.291z M216.614,101.407
		c-4.546-6.926-8.446-14.306-12.505-21.581c5.232,6.516,10.048,13.319,14.999,20.089c3.561,4.869,7.134,9.707,11.015,14.251
		C224.556,111.743,219.826,106.298,216.614,101.407z M332.377,132.214c1.022-0.147,2.04-0.318,3.044-0.532
		c0.233-0.049,0.466-0.106,0.699-0.157c1.325,0.343,2.672,0.656,4.035,0.953C337.52,132.568,334.901,132.508,332.377,132.214z
		 M409.468,129.194c1.092,1.562,2.002,3.293,2.77,5.125c-1.66-0.742-3.396-1.397-5.146-1.968
		C407.985,131.373,408.787,130.308,409.468,129.194z"/>
</g>
<g>
	<path style="fill:#808080;" d="M333.574,32.743c-4.785-3.406-8.669-6.555-14.413-8.45c-5.307-1.751-11.036-2.187-16.559-2.871
		c-13.029-1.615-26.716-2.014-39.852-2.034c-5.872-0.009-11.668,0.885-17.55,0.87c-5.758-0.015-11.41,0.672-17.068,1.719
		c-9.742,1.804-23.435,2.355-30.675,10.01c-5.089,5.383,2.996,13.51,8.145,8.145c3.251-3.386,10.086-4.003,14.473-4.829
		c5.232-0.985,10.512-2.073,15.791-2.739c4.868-0.613,9.67-0.226,14.543-0.421c5.699-0.229,11.197-0.877,16.924-0.606
		c11.352,0.539,22.721,0.928,34.068,1.57c5.12,0.29,10.267,0.601,15.38,0.982c5.341,0.398,10.455,2.072,15.811,2.276
		C334.671,36.444,335.033,33.781,333.574,32.743z"/>
	<path style="fill:#808080;" d="M339.187,65.387c-1.483-2.498-3.976-3.268-6.344-4.794c-3.08-1.987-5.715-4.326-9.059-5.927
		c-8.344-3.995-17.567-6.689-26.521-8.941c-9.589-2.411-19.277-3.252-29.154-2.975c-8.454,0.238-18.585-0.898-26.733,1.57
		c-5.127,1.554-2.976,9.524,2.22,8.053c7.345-2.08,16.951-0.536,24.513-0.023c9.177,0.623,18.292,2.327,27.147,4.802
		c7.821,2.186,15.334,5.19,23.046,7.698c3.181,1.035,6.306,2.183,9.636,2.631c3.023,0.407,6.054,0.139,9.053,0.761
		C338.598,68.576,340.095,66.917,339.187,65.387z"/>
	<path style="fill:#808080;" d="M346.713,94.843c-5.272-4.283-11.008-7.649-16.592-11.396c-5.973-4.009-13.013-6.289-19.228-10.015
		c-6.27-3.76-13.474-5.136-20.275-7.639c-7.193-2.647-14.995-5.126-22.598-6.173c-4.439-0.611-6.559,5.899-1.914,6.942
		c7.722,1.735,14.475,5.582,21.516,9.021c6.367,3.111,12.905,5.206,18.847,9.169c5.642,3.762,11.642,5.953,17.685,8.903
		c2.598,1.268,4.989,2.021,7.845,2.542c4.136,0.754,8.053,2.351,12.193,2.977C346.413,99.511,348.974,96.68,346.713,94.843z"/>
	<path style="fill:#808080;" d="M374.854,60.396c-9.457-7.831-19.403-14.326-30.943-18.574c-2.658-0.979-4.522,3.379-1.941,4.605
		c9.798,4.66,16.11,12.879,23.434,20.496c6.806,7.077,11.663,16.515,19.42,22.575c1.28,1,3.159,1.064,4.071-0.525
		C394.841,78.61,382.001,66.314,374.854,60.396z"/>
	<path style="fill:#808080;" d="M161.393,61.417c-8.117,0.558-16.676,1.656-24.383,4.234c-0.619,0.208-1.251,0.404-1.887,0.598
		c1.472-0.612,2.895-1.387,4.243-2.424c1.132-0.87,1.159-2.242,0-3.109c-7.563-5.656-20.383-4.126-28.654-0.595
		c-9.516,4.062-17.744,10.368-26.186,16.192c-4.821,3.326-0.555,10.971,4.651,7.957c4.423-2.561,8.621-5.915,13.336-7.892
		c3.733-1.564,7.338-3.239,11.003-4.958c5.135-2.41,10.868-2.52,16.289-3.611c-5.317,1.58-10.609,3.471-14.357,7.493
		c-6.205,6.656,3.937,16.746,9.978,9.978c2.31-2.588,5.699-3.094,8.887-4.191c3.867-1.332,7.806-2.622,11.603-4.141
		c5.865-2.346,13.249-5.46,17.82-9.878C165.706,65.166,164.3,61.218,161.393,61.417z"/>
</g>
<g>
	<path style="fill:#0083CA;" d="M369.207,358.489c-3.067-5.244-10.388-6.196-15.908-5.92c-3.105,0.156-6.156,1.25-8.472,3.337
		c-0.917,0.826-1.762,1.698-2.429,2.755c-0.231,0.365-0.799,1.338-1.209,2.124c-0.305,0.061-0.613,0.134-0.929,0.222
		c-1.771,0.493-3.837,2.422-5.082,2.808c-2.118,0.657-4.872,0.441-7.09,0.976c-2.041,0.493-3.999,1.377-6.071,1.778
		c-4.7,0.909-9.363,1.372-14,2.702c-3.519,1.009-6.95,2.751-10.643,2.731c-4.463-0.025-8.788-0.595-13.301-0.453
		c-4.984,0.156-9.981,0.214-14.958,0.478c-4.002,0.213-8.235,0.499-12.373,1.208c-1.429-0.533-2.875-1.026-4.359-1.393
		c-4.162-1.03-8.363-1.951-12.543-2.884c-3.882-0.866-8.732-1.301-11.189,1.434c-4.844-1.525-9.645-3.54-13.892-5.465
		c-3.255-1.476-6.379-3.346-9.703-4.636c-3.729-1.449-7.769-2.036-11.357-3.899c-6.629-3.442-10.809-9.713-19.034-9.249
		c-0.984,0.055-1.834,0.291-2.577,0.639c-1.026-1.021-2.416-1.724-4.144-1.799l-1.576-0.068c-5.25-0.225-7.656,5.602-5.61,9.777
		c2.507,5.114,3.617,10.802,6.811,15.614c3.392,5.113,7.746,9.498,11.382,14.423c3.34,4.525,5.661,10.091,8.408,15.011
		c2.962,5.307,5.256,11.092,5.301,17.239c0.045,6.244,0.393,12.323,0.606,18.528c0.209,6.094,0.398,11.969-1.043,17.889
		c-0.457,1.875-0.885,3.692-1.166,5.598c-0.139,0.941-0.252,3.275-0.043,3.45c-0.476,1.015-1.108,2.019-1.4,3.09
		c-0.391,1.436-0.176,3.147-0.74,4.517c-2.241,5.449-5.522,10.342-6.429,16.365c-1.214,8.062,3.093,14.168,11.383,14.944
		c2.583,0.241,4.774-0.517,7.274-0.788c2.511-0.272,5.298,0.09,7.832,0.009c5.997-0.19,11.979-0.683,17.849-1.918
		c4.528-0.952,9.408-0.337,14.138-0.49c6.313-0.206,12.653-1.129,18.93-1.812c10.083-1.098,20.773-2.575,30.897-1.125
		c10.972,1.572,22.167,2.037,33.288,1.339c1.161-0.072,2.336-0.37,3.472-0.563c2.664,0.359,5.181,0.741,7.827,0.35
		c1.196,0.697,2.617,1.135,4.353,1.307c4.851,0.482,9.531-5.56,7.721-10.136c-0.061-0.155-0.125-0.279-0.187-0.42
		c0.372-0.887,0.676-1.816,0.886-2.787c2.439-11.225-0.969-23.491-1.293-34.798c-0.162-5.672-0.731-11.761-0.815-17.779
		c1.865-6.062,3.112-12.329,5.022-18.383c2.261-7.17,5.059-14.197,7.491-21.322c1.223-3.582,3.204-6.733,4.418-10.349
		c0.858-2.553,1.38-4.747,2.337-6.882c0.451-0.702,0.906-1.402,1.352-2.107C369.52,369.122,372.297,363.772,369.207,358.489z"/>
	<path style="fill:#0083CA;" d="M149.77,471.466c-0.37-4.099-1.327-8.186-1.884-12.265c-0.607-4.443-0.377-8.698-0.758-13.126
		c-0.333-3.868-1.632-7.687-2.353-11.492c-0.967-5.105-3.338-10.036-5.181-14.869c-3.26-8.542-4.557-18.235-8.982-26.323
		c-2.852-5.212-7.979-11.824-14.608-9.792c-2.72,0.834-4.012,3.443-3.415,5.989c-4.029,1.788-8.025,3.701-10.961,7.092
		c-3.998,4.617-8.383,9.263-12.055,14.131c-3.558,4.718-7.464,9.384-10.606,14.405c-3.429,5.48-5.597,11.495-8.485,17.238
		c-5.641,11.212-8.795,25.012-9.767,37.546c-0.414,5.342,0.092,12.501,3.333,16.912c3.567,4.855,8.594,5.753,13.682,4.479
		c3.606-0.134,7.229,0.67,10.974,0.322c2.725-0.253,6.608,0.601,10.324,0.641c5.13,0.054,10.267-0.19,15.396-0.248
		c3.884-0.043,7.799-0.974,11.538-1.097c6.201-0.205,15.871,4.492,20.693-4.288c1.774-3.232,1.746-8.538,1.983-12.138
		C148.926,480.173,150.171,475.889,149.77,471.466z"/>
	<path style="fill:#0083CA;" d="M463.955,480.138c-1.193-4.903-1.798-9.81-2.438-14.812c-0.635-4.959-2.264-9.484-3.738-14.232
		c-1.644-5.303-2.804-10.748-4.617-16c-3.98-11.529-10.601-21.08-18.474-30.325c-4.099-4.814-10.25-10.481-16.838-12.744
		c0.128-3.751-3.032-7.389-7.462-6.148c-8.802,2.466-10.875,17.177-13.538,24.547c-3.361,9.301-5.428,19.909-5.414,29.824
		c0.007,5.333-0.032,10.641-0.246,15.972c-0.198,4.964,0.48,9.649,0.636,14.555c0.16,5.022,0.323,9.781,1.6,14.689
		c1.186,4.559,3.085,9.005,8.318,10.556c9.606,2.847,20.764,1.471,30.665,1.562c5.47,0.05,10.776-0.151,16.226-0.515
		c4.696-0.313,9.801-0.15,13.333-3.857C465.507,489.497,465.065,484.696,463.955,480.138z M441.978,478.701
		c-0.103,0.006-0.206,0.006-0.31,0.012c0.276-0.84,0.519-1.703,0.731-2.578c0.371-0.565,0.698-1.171,0.963-1.83
		c0.165,1.414,0.338,2.827,0.57,4.224c0,0.001,0,0.004,0.001,0.005C443.282,478.601,442.631,478.661,441.978,478.701z"/>
</g>
<g>
	<path style="fill:#0A5FA5;" d="M324.488,397.74c-0.193-0.729-0.338-1.189-0.444-1.424c-0.026-1.157-0.38-2.316-1.3-3.093
		c-2.642-2.228-5.784-2.263-9.126-2.021c-2.896,0.21-5.335,1.515-8.074,2.263c-2.73,0.745-5.405,1.13-8.07,2.124
		c-0.124,0.047-0.259,0.096-0.387,0.144c-3.579-1.494-7.923-1.32-11.02,1.191c-0.085,0.043-0.182,0.072-0.262,0.119
		c-0.579,0.338-1.031,0.917-1.627,1.211c-0.842,0.414-1.76,0.602-2.631,0.983c-0.004-0.001-0.009-0.001-0.012-0.002
		c-0.085-0.079-0.187-0.17-0.307-0.274c-0.971-0.845-1.9-2.386-2.602-3.475c-2.1-3.252-3.647-7.206-4.845-11.031
		c-0.026-0.082-0.044-0.162-0.076-0.245c-0.259-0.837-0.507-1.669-0.735-2.483c-1.127-4.034-2.419-7.816-7.099-8.919
		c-5.937-1.4-8.734,2.977-11.907,6.9c-3.193,3.948-6.359,8.165-10.376,11.319c-1.223,0.96-1.748,2.151-1.773,3.356
		c-3.669,2.832-7.499,5.696-11.417,8.074c-0.885,0.537-1.837,1.23-2.83,1.916c-0.826-0.222-1.606-0.479-2.298-0.768
		c-2.827-1.182-4.818-3.964-7.458-5.651c-3.166-2.024-5.556-4.47-8.44-6.893c-5.392-4.533-10.634-9.857-14.958-15.457
		c-2.339-3.029-3.95-6.5-5.893-9.771c-0.965-1.624-1.664-3.437-2.628-5.03c-0.311-0.514-1.601-3.059-1.629-2.153
		c-1.877-3.831-8.517-5.911-10.664-0.92c-1.654,3.846-0.644,7.189,0.412,11.083c1.39,5.127,3.063,10.771,5.648,15.415
		c3.784,6.801,8.675,13.416,14.023,19.4c-0.74-0.053-1.513-0.029-2.325,0.088c-4.078,0.592-3.815,6.151-1.049,8.027
		c-1.256-0.852,0.544,2.671,0.843,3.842c0.569,2.239,0.903,4.573,1.094,6.871c0.644,7.785-0.216,15.627-0.533,23.406
		c-0.319,7.854-1.744,15.586-2.193,23.425c-0.328,5.72-2.875,13.846-0.996,19.357c2.648,7.767,12.618,9.148,17.149,2.241
		c1.019-1.553,1.975-3.098,2.896-4.643c2.541-0.539,4.814-2.367,5.608-5.141c0.149-0.521,0.279-1.051,0.415-1.579
		c4.648-0.119,9.219-3.31,9.69-9.597c0.344-4.586-1.526-8.834-1.686-13.394c-0.166-4.743-0.111-9.475,0.219-14.209
		c0.344-4.954,0.875-9.858,0.818-14.826c-0.02-1.694,0.104-3.337,0.22-4.968c1.239-0.01,2.483-0.093,3.724-0.224
		c7.525-0.213,14.743-3.902,21.222-7.317c4.036-2.127,8.685-4.676,12.89-7.751c0.052,0.111,0.096,0.22,0.147,0.331
		c4.59,9.713,12.122,14.893,23.204,14.66c8.352-0.176,16.925-3.492,24.697-6.285c4.898-1.761,7.807-4.549,11.33-8.171
		c1.465-1.506,2.836-3.2,3.424-5.267C324.914,400.915,324.914,399.327,324.488,397.74z"/>
	<path style="fill:#0A5FA5;" d="M132.983,483.66c-0.044-0.28-0.09-0.509-0.134-0.65c-0.651-2.084-1.597-4.382-2.655-6.269
		c-2.405-4.289-5.35-8.506-8.22-12.493c-2.707-3.76-5.363-7.549-8.053-11.32c-1.857-2.605-7.172-7.388-7.555-10.574
		c-0.447-3.714-2.991-5.752-5.699-6.102c0.541-1.316,1.113-2.618,1.753-3.893c2.875-5.72,6.502-11.092,9.658-16.659
		c1.702-3.004,4.034-5.347,6.113-8.079c2.032-2.671,3.18-6.043,5.534-8.42c4.211-4.253-0.027-11.776-5.884-10.107
		c-7.472,2.128-15.001,7.636-20.169,13.572c-0.473,0.198-0.947,0.421-1.425,0.707c-8.361,4.993-12.807,14.039-16.671,22.589
		c-4.192,9.278-6.892,18.952-8.908,28.926c-1.764,8.73-3.347,18.452-0.661,27.159c0.221,0.715,0.478,1.429,0.752,2.139
		c-0.913,4.488,0.745,9.726,5.116,11.891c5.557,2.754,11.695,3.842,17.492,2.889c3.866,0.259,7.742,0.445,11.641,0.724
		c7.389,0.528,14.898,3.066,21.682-0.225c1.127-0.097,2.241-0.26,3.416-0.452C137.374,497.831,138.092,487.538,132.983,483.66z
		 M92.082,466.034c0.017-0.29,0.033-0.584,0.049-0.886c0.021-0.407,0.069-0.812,0.104-1.219c0.339-2.247,0.793-4.479,1.296-6.7
		c0.581-1.866,1.204-3.724,1.842-5.583c0.652,1.649,1.368,3.289,1.968,4.97c1.871,5.236,4.066,10.24,6.418,15.257
		c-1.076-0.922-2.367-1.671-3.899-2.142C97.215,468.918,94.674,467.287,92.082,466.034z"/>
	<path style="fill:#0A5FA5;" d="M420.83,475.746c-2.332-2.833-6.445-6.206-10.288-8.194c-0.703-1.398-1.245-2.921-1.524-4.898
		c-0.692-4.906-0.09-10.139-0.154-15.086c-0.072-5.582,0.291-11.125,0.614-16.693c0.204-3.528,0.403-9.513,1.144-11.694
		c1.696-4.998-3.467-8.946-7.999-7.999c-5.941,1.242-8.471,5.997-9.84,11.456c-1.866,7.446-3.15,14.86-3.614,22.535
		c-0.403,6.662-1.35,13.603-0.682,20.261c0.66,6.575,2.794,11.327,5.637,16.752c0.308,0.774,0.698,1.537,1.221,2.303
		c2.101,3.071,4.969,4.561,7.897,4.883c4.544,3.192,9.262,4.853,15.576,1.97C425.159,488.447,424.475,480.174,420.83,475.746z"/>
</g>
<g>
	<path style="fill:#FFC60B;" d="M443.492,391.617c-0.641-2.867-2.47-4.938-3.966-7.386c-0.732-1.197-1.299-2.481-1.904-3.745
		c1.068-3.298,1.305-7.095,1.601-10.757c0.655-8.09-0.172-15.715-0.91-23.693c-0.633-6.835-1.355-13.727-9.395-15.543
		c-7.391-1.67-12.839,4.508-20.214,2.629c-3.834-0.977-7.425-2.55-11.458-2.664c-3.278-0.093-6.406,1.071-9.665,1.095
		c-7.478,0.057-11.977,1.886-16.832,7.67c-4.431,5.28-7.92,12.487-2.014,18.335c1.88,1.86,4.642,3.347,7.198,4.261
		c-0.686,4.056-0.934,8.164-1.08,12.29c-0.477,1.019-0.938,2.01-1.398,2.932c-1.43,0.843-2.765,1.859-3.906,2.874
		c-5.685,5.056-6.99,11.601-9.611,18.348c-3.475,8.949-6.012,18.459-6.95,28.118c-1.237,4.608-2.085,9.218-3.101,13.963
		c-1.173,5.481-2.578,12.152-2.067,17.722c0.59,6.421,0.321,12.933,0.957,19.379c0.585,5.92,3.241,10.303,8.638,12.958
		c0.851,0.419,1.755,0.565,2.613,0.431c0.106,0.16,0.2,0.319,0.318,0.479c0.869,1.176,1.889,2.137,2.994,2.884
		c0.022,0.023,0.041,0.049,0.063,0.072c1.411,1.489,3.485,2.446,5.642,2.741c3.084,4.592,11.523,4.611,13.152-1.94
		c2.016-8.109,4.81-16.414,4.33-24.915c-0.188-3.32-1.557-7.318-3.311-10.444c0.118-1.102,0.232-2.203,0.337-3.305
		c0.939-9.826,1.719-19.599,4.296-29.166c2.387-8.864,6.619-16.389,10.314-24.695c2.539-5.706,6.802-14.001,6.285-20.849
		c0.254-0.181,0.501-0.381,0.749-0.58c0.491,2.219,1.385,4.291,3.209,5.914c2.817,2.507,7.702,3.759,11.282,1.995
		c1.434,1.266,3.424,1.962,5.436,2.03c0.898,1.422,1.896,2.858,3.057,4.069c2.926,3.053,7.252,4.917,11.386,3.396
		C442.525,397.439,444.204,394.795,443.492,391.617z M382.963,346.231C381.187,346.114,382,342.786,382.963,346.231L382.963,346.231
		z"/>
	<path style="fill:#FFC60B;" d="M187.308,445.671c-0.017-0.085-0.037-0.17-0.054-0.254c0.114-2.541,0.07-5.093-0.02-7.591
		c-0.275-7.646-0.875-16.21-2.96-23.504c-0.903-3.159-1.946-6.43-3.533-9.194c-1.61-4.598-3.596-9.84-6.801-13.067
		c-1.78-7.017-4.955-14.011-7.012-19.815c-2.376-6.706-4.878-13.35-9.171-19.103c-0.99-1.328-1.989-2.703-3.056-3.987
		c-0.478-2.879-1.384-5.744-2.043-8.1c-1.193-4.259-5.206-6.669-9.183-6.384c-4.63-1.971-10.187-1.137-15.296-0.592
		c-3.077,0.328-5.801,1.621-8.467,1.52c-3.62-0.138-6.848-0.779-10.504-0.29c-2.9,0.388-5.77,2.177-7.961,2.762
		c-2.468,0.66-5.834,0.554-8.692,1.966c-6.436,3.179-8.811,9.084-9.213,15.951c-0.435,7.45,0.5,14.858,1.608,22.191
		c0.386,2.551,0.5,5.11,0.795,7.673c0.21,1.83,0.614,3.422,0.957,5.202c0.1,0.519,0.127,3.192,0.243,1.903
		c0.226,5.722,6.14,9.191,11.221,6.438c4.616-2.502,6.093-7.568,6.421-12.546c1.591-1.07,2.964-2.58,4.482-3.977
		c1.933-1.778,4.017-3.681,6.237-5.31c2.359,3.471,5.985,6.08,9.642,8.601c0.494,0.613,0.979,1.234,1.489,1.828
		c4.665,5.44,7.797,11.046,10.82,17.567c0.882,1.903,1.877,4.049,3.034,6.15c-0.079,0.797-0.086,1.632-0.025,2.497
		c0.417,5.888,1.173,9.033,2.36,14.579c1.616,7.554,3.034,15.181,4.379,22.793c1.397,7.902,1.282,16.341,4.099,23.912
		c0.563,1.513,1.467,2.725,2.552,3.655c-0.692,4.868-2.325,9.279-2.091,13.978c-0.302,1.436-0.006,2.811,0.688,3.982
		c0.037,0.12,0.063,0.238,0.103,0.36c1.886,5.737,7.984,8.677,13.205,5.06c1.341-0.929,2.104-2.043,3.091-3.318
		c0.063-0.085,0.111-0.152,0.16-0.221c0.397-0.182,0.791-0.367,1.198-0.528c3.266-1.145,7.077-3.203,9.573-5.612
		c5.26-5.078,6.599-14.264,7.468-21.211C188.094,463.335,189.024,453.935,187.308,445.671z"/>
</g>
<g>
	<path style="fill:#CC9809;" d="M412.408,336.282c-2.69-0.694-6.947,0.37-8.322,0.468c0.592-0.084-2.639-0.894-3.137-1.074
		c-1.107-0.397-2.032-0.714-2.976-0.967c-2.824-4.142-8.073-6.296-13.175-4.89c-2.212,0.609-3.934,1.993-6.001,2.856
		c-2.443,1.02-5.344,1.28-7.883,2.059c-5.845,1.795-6.979,7.974-4.167,12.083c-0.689,6.244,3.052,13.024,10.467,12.135
		c1.37-0.165,2.738-0.525,4.106-0.946c0.485-0.066,1.23-0.184,2.253-0.361c0.973-0.128,1.9-0.414,2.779-0.86
		c0.645-0.236,1.254-0.501,1.852-0.779c1.734-0.318,3.475-0.382,5.232,0.08c3.33,0.875,5.817,2.438,9.455,2.056
		c0.129-0.013,0.251-0.044,0.378-0.063c0.391,3.91,1.624,6.746,5.017,9.398c3.029,2.368,6.108,2.389,9.164,0
		C426.514,360.396,424.534,339.413,412.408,336.282z"/>
	<path style="fill:#CC9809;" d="M390.166,360.439c-0.13-1.011-0.753-1.863-1.871-1.871c-6.485-0.053-10.192,2.068-13.787,7.609
		c-3.347,5.158-6.032,11.099-8.707,16.634c-2.88,5.958-6.709,11.139-9.954,16.867c-3.362,5.933-4.404,12.752-5.36,19.414
		c-1.87,13.04-2.336,25.695-2.08,38.864c0.143,7.291,1.372,14.314,3.666,21.222c0.869,2.617,1.413,5.412,2.514,7.937
		c1.344,3.084,4.496,5.306,5.675,8.388c0.944,2.464,4.425,2.72,5.276,0c1.309-4.18,0.923-10.185,0.462-14.48
		c-0.676-6.3-2.725-12.34-3.206-18.646c-0.931-12.21-1.162-25.119,3.632-36.568c2.149-5.132,3.706-10.584,6.164-15.576
		c2.757-5.599,6.459-10.62,8.93-16.396c2.357-5.508,4.637-10.939,6.635-16.595c0.949-2.685,2.316-5.487,2.896-8.273
		C391.69,365.908,390.546,363.392,390.166,360.439z"/>
	<path style="fill:#CC9809;" d="M170.401,446.008c-1.961-6.633-2.557-13.548-4.416-20.189c-0.912-3.259-2.552-6.194-3.504-9.405
		c-0.931-3.144-1.841-6.184-2.994-9.262c-2.278-6.07-6.012-10.771-9.627-16.102c-3.692-5.446-6.003-10.617-11.774-14.412
		c-2.734-1.798-5.847-3.502-9.022-4.976c3.201-1.492,6.225-3.422,9.024-5.529c1.18-0.888,2.419-1.92,3.631-3.061
		c0.316-0.16,0.632-0.318,0.947-0.478c0.307-0.156,0.636-0.291,0.963-0.434c0.136-0.02,0.268-0.054,0.403-0.08
		c-0.001,0.002,0.006,0,0.015-0.002c0.982-0.188,1.923-0.516,2.723-0.982c5.113-2.977,7.232-9.589,4.154-14.854
		c-0.8-1.368-1.812-2.453-2.965-3.293c-2.983-5.179-9.769-7.552-15.832-5.744c-6.448,1.922-10.647,7.201-16.497,10.074
		c-1.556,0.764-4.627,2.325-6.287,2.645c-1.576,0.306-1.253-0.351-3.537-1.497c-7.123-3.571-15.248-0.418-18.19,6.936
		c-4.104,10.262-1.278,29.963,10.406,34.06c6.173,2.165,12.215-3.459,12.353-9.411c0.066-2.831-0.226-5.632-0.396-8.46
		c0.461-0.044,0.917-0.098,1.366-0.166c1.633,1.912,3.927,3.17,6.748,3.185c0.247,3.922,1.728,7.31,4.533,10.428
		c3.884,4.316,6.526,7.434,8.952,12.754c2.164,4.744,5.965,8.618,8.342,13.206c2.714,5.242,3.058,11.578,5.658,16.959
		c2.542,5.26,3.389,11.003,4.869,16.655c1.27,4.855,3.606,9.385,3.503,14.479c-0.107,5.285-0.211,10.519-0.284,15.814
		c-0.037,2.749,0.203,5.506,0.389,8.234c0.194,2.848,1.774,7.521,1.021,10.245c-0.509,1.843,1.677,3.756,3.384,2.601
		c9.831-6.65,10.691-20.637,12.384-31.279C171.911,457.954,172.37,452.667,170.401,446.008z"/>
</g>
<path d="M244.531,231.46c8.585,5.424,18.729,9.075,27.758,2.584c6.534-4.699,9.3-13.553,7.092-21.264
	c-0.762-2.663-4.589-2.632-5.368,0c-1.172,3.96-0.521,8.423-2.886,12.011c-4.606,6.984-12.995,5.143-19.29,2.003
	c-1.71-0.854-4.91-2.091-6.012-3.794c-1.633-2.523-0.097-6.139,1.547-8.137c3.084-3.75,8.333-6.711,13.019-7.695
	c0.973-0.204,1.042-1.889,0-2.036c-8.171-1.156-15.934-0.146-20.537,7.838C235.856,219.904,238.07,227.379,244.531,231.46z"/>
<path d="M189.691,274.043c0.382,4.205,0.387,8.317,1.477,12.452c2.083,7.907,7.426,14.142,12.616,20.233
	c4.706,5.522,8.258,12.049,14.686,15.737c3.268,1.875,6.307,4.152,9.597,5.975c3.765,2.088,7.633,2.557,11.794,3.365
	c8.729,1.694,17.501,3.541,26.323,4.656c8.911,1.125,15.94-2.731,23.567-6.743c8.167-4.298,14.459-8.751,20.889-15.37
	c5.349-5.506,9.092-12.298,12.561-19.102c2.406-4.719,11.375-39.23-3.217-35.388c-0.523,0.138-0.951,0.403-1.322,0.721
	c-0.36-0.582-1.073-0.91-1.866-0.759c-8.553,1.63-15.821,5.845-24.072,8.095c-4.928,1.344-10.422,0.154-15.538,1.302
	c-6.034,1.354-11.546,1.191-17.695,0.976c-6.011-0.211-12.051,0.377-18.055,0.007c-5.618-0.345-10.714-1.971-16.401-1.78
	c-5,0.168-9.722-1.511-14.72-1.887c-5.754-0.432-11.54-2.773-17.123-4.298c-2.572-0.703-4.358,1.728-3.945,3.832
	C188.766,268.735,189.433,271.21,189.691,274.043z M285.39,320.063c-3.676,1.975-7.344,4.466-11.391,5.605
	c-4.785,1.347-8.95-0.149-13.653-0.895c-8.253-1.311-17.439-1.392-25.386-4.187c-3.551-1.248-6.66-4.147-9.912-5.974
	c-3.416-1.918-5.379-3.697-7.765-6.682c3.797,1.273,8.094,1.15,12.032,1.368c10.44,0.576,20.898,0.192,31.335,0.687
	c9.596,0.455,18.867,1.089,28.366-0.772c1.682-0.329,3.38-0.692,5.054-1.138c2.344,0.412,4.776,0.659,7.178,0.73
	C296.612,313.373,291.303,316.889,285.39,320.063z M308.637,299.685c-0.285-0.167-0.596-0.308-0.934-0.423
	c0.064-0.104,0.127-0.21,0.192-0.312c0.677-0.265,1.322-0.616,1.928-1.063C309.439,298.502,309.034,299.089,308.637,299.685z
	 M206.4,274.168c2.754,0.476,5.525,0.269,8.248,0.971c2.826,0.727,5.345,1.61,8.309,1.658c3.399,0.054,6.398-0.276,9.754,0.491
	c2.942,0.673,5.709,1.209,8.728,1.357c7.055,0.344,14.126-0.171,21.19,0.136c5.888,0.256,11.071-0.202,16.804-1.422
	c5.473-1.165,11.222,0.267,16.532-1.65c5.442-1.965,17.642-5.108,21.709-11.135c0.166,0.437,0.392,0.858,0.743,1.216
	c-1.433-1.463-0.275,0.349-0.199,1.785c0.08,1.499,0.049,2.988-0.07,4.485c-0.273,3.433-1.097,6.782-1.719,10.163
	c-0.311,1.696-0.789,3.411-1.393,5.12c-2.075-0.469-4.745,0.01-6.308,0.532c-0.229-0.026-0.455-0.059-0.702-0.052
	c-2.556,0.082-4.076,0.74-5.62,1.9c-0.896-0.151-1.79-0.269-2.682-0.333c-4.611-0.326-9.325,1.215-13.952,1.503
	c-4.469,0.279-8.857,1.355-13.332,1.612c-5.523,0.316-11.114,0.118-16.647,0.174c-8.912,0.092-17.94,1.543-26.842,0.935
	c-4.858-0.332-9.371-2.138-14.155-2.843c-3.803-0.56-8-0.726-11.819-0.693c-0.254,0.002-0.485,0.044-0.705,0.102
	c-0.385-0.625-0.757-1.259-1.097-1.912c-2-3.837-2.515-7.953-3.256-12.145c-0.311-1.76-0.849-3.407-1.441-5.033
	C199.698,272.503,203.108,273.599,206.4,274.168z"/>
<path d="M163.887,220.939c5.965,13.215,25.495,9.782,31.274-1.671c2.978-5.901,1.981-13.48-2.94-18.055
	c-4.371-4.063-11.066-4.49-16.507-2.597c-5.349,1.859-10.643,5.671-12.444,11.276c-0.614,1.911-0.713,3.834-0.408,5.663
	C162.798,217.372,163.102,219.198,163.887,220.939z"/>
<path d="M333.658,223.65c0.107-0.034,0.204-0.085,0.308-0.124c2.853,0.096,5.747-0.483,8.192-1.752
	c8.482-4.402,9.992-16.402,3.69-23.317c-6.887-7.558-17.472-4.191-22.997,2.937c-2.89,3.729-4.82,8.683-3.537,13.437
	C320.896,220.703,327.459,225.685,333.658,223.65z"/>
<path d="M74.537,237.791c-2.239-0.945-5.234-0.915-7.413,0.349c-0.15,0.021-0.159,0.028-0.033,0.021
	c-0.011,0.006-0.021,0.014-0.032,0.02c-0.586,0.077-1.116,0.17-1.635,0.316c-0.699,0.066-1.398,0.129-2.096,0.219
	c-1.06,0.136-2.379,0.721-2.567,1.954c-0.086,0.558-0.171,1.116-0.256,1.675c-0.332,2.169,1.551,3.435,3.117,3.008
	c0.037,0.041,0.066,0.09,0.103,0.127c0.252,0.194,0.503,0.388,0.754,0.582c0,0.001,0,0.001,0,0.001
	c0.337,0.414,0.496,0.584,0.8,0.831c0.057,0.082,0.117,0.162,0.177,0.242c0.402,2.686,2.083,5.132,4.966,5.788
	c3.748,0.854,7.568-1.126,8.651-4.911C80.235,243.958,78.501,239.463,74.537,237.791z"/>
<path d="M440.805,225.778c0.542-0.629,0.989-1.225,1.311-1.989c0.119-0.281,0.194-0.477,0.242-0.616
	c0.081-0.113,0.167-0.224,0.247-0.324c1.283-0.671,2.145-1.879,2.338-3.342c1.232-2.697-0.31-6.252-3.283-6.972
	c-0.159-0.045-0.319-0.077-0.483-0.097c-1.677-0.168-1.88-0.227-0.611-0.177c-1.032-0.278-2.064-0.278-3.096,0
	c-0.549,0.23-1.097,0.461-1.644,0.695c-0.973,0.499-1.862,1.213-2.605,2.011c-2.693,2.891-2.929,7.869-0.219,10.811
	C434.916,227.856,438.914,227.973,440.805,225.778z"/>
<path d="M471.268,461.831c-0.837-19.897-10.596-39.536-24.371-53.888c-0.318-0.331-0.651-0.651-0.974-0.978
	c0.908-0.509,1.694-1.268,2.225-2.338c3.004-6.044,3.428-13.672,3.059-20.33c-0.188-3.404-0.576-6.84-0.399-10.254
	c0.156-3.04,1.316-5.957,1.36-8.983c0.039-2.671-1.095-5.056-1.557-7.646c-0.559-3.131-0.635-5.974-1.613-9.036
	c-1.847-5.787-0.186-11.848-5.753-15.983c-0.805-0.597-1.429-0.592-2.165-1.279c-0.918-0.858-1.223-2.196-2.074-3.143
	c-1.579-1.757-4.112-3.014-6.381-3.492c-6.306-1.331-12.761,1.096-19.008,1.493c-7.446,0.472-14.602-3.1-22.071-1
	c-2.396,0.673-4.25,2.48-6.693,2.336c-0.102-0.006-0.179-0.023-0.274-0.033c2.07-2.75,4.132-5.491,6.234-8.162
	c10.584-13.438,18.726-28.333,25.036-44.209c3.676-9.248,7.125-18.727,10.227-28.185c0.382-1.167,0.688-2.353,0.972-3.545
	c5.156,4.574,12.55,6.69,19.463,5.012c6.139-1.492,11.323-5.586,14.097-11.26c2.873-5.876,5.064-14.106,5.63-20.58
	c0.575-6.581-3.596-11.079-6.624-16.529c-2.824-5.079-6.619-7.109-12.339-7.437c-0.531-0.031-1.059-0.053-1.585-0.071
	c0.123-1.279,0.296-2.563,0.55-3.858c1.401-7.115,5.39-12.412,9.406-18.23c4.46-6.462,7.011-12.908,8.306-20.634
	c1.302-7.769,1.003-15.45,1.702-23.245c0.73-8.135,2.147-15.973,0.06-24.045c-3.39-13.11-8.771-27.696-18.584-37.302
	c-9.855-9.648-22.77-16.982-36.666-18.475c-8.192-0.88-15.796-0.488-23.221-4.753c-6.456-3.708-11.653-9.073-16.914-14.254
	c-4.457-4.39-8.751-9.35-13.523-13.367c-5.046-4.248-12.217-6.078-18.329-8.284c-14.78-5.335-32.658-6.923-48.211-5.194
	c-18.567,2.063-36.602,2.575-54.511,8.613c-3.114,1.051-6.505,1.979-9.951,2.97c-8.055-1.293-17.126,1.911-24.067,5.252
	c-5.39,2.595-9.895,6.204-14.498,9.967c-0.295,0.241-0.6,0.469-0.901,0.703c0.297-0.527,0.589-1.064,0.859-1.615
	c2.324-4.724,3.939-10.041,7.316-14.169c2.258-2.762,1.344-6.271-1.993-7.55c-8.53-3.267-18.723,5.856-23.213,12.322
	c-2.475,3.564-4.914,7.746-6.956,12.174c-0.016-2.935,0.276-5.887,0.042-8.825c-0.367-4.588-0.326-7.281,1.318-11.514
	c0.864-2.225,1.046-3.701,0.665-6.11c-0.369-2.326-3.875-1.637-3.96,0.536c-0.128,3.283-4.704,6.556-5.602,10.04
	c-1.069,4.141-1.006,8.562-1.747,12.764c-1.61,9.133,0.972,17.15,4.818,25.393c2.299,4.93,9.948,2.314,9.913-2.685
	c-0.052-7.657,4.026-15.655,7.377-22.31c0.875-1.739,2.851-4.855,5.271-7.624c-1.18,2.32-2.38,4.631-3.755,6.86
	c-3.593,5.823-5.496,10.62-4.485,17.547c0.426,2.918,4.222,4.642,6.807,3.864c0.356-0.107,0.703-0.24,1.053-0.366
	c0.557,4.165,1.988,8.352,3.107,12.296c1.601,5.642,3.888,11.116,6.553,16.336c5.471,10.72,13.06,20.442,21.907,28.585
	c9.137,8.409,19.454,15.222,30.677,20.503c10.712,5.041,22.466,11.396,34.646,10.461c0.89-0.069,1.546-0.66,1.865-1.377
	c2.509,2.088,5.33,3.934,8.616,5.546c4.831,2.369,9.251,4.384,13.802,7.345c0.054,0.036,0.112,0.068,0.166,0.103
	c-1.094-0.167-2.183-0.344-3.262-0.548c-7.317-1.386-14.638-2.736-21.968-4.061c-13.951-2.521-26.667-5.491-39.529-11.577
	c-5.485-2.595-12.242-3.82-16.955-7.673c-4.685-3.83-9.067-8.576-13.303-12.894c-4.826-4.919-9.446-10.11-13.721-15.517
	c-1.606-2.032-2.989-4.167-4.291-6.344c-2.353-6.983-6.437-12.974-7.96-20.415c-1.07-5.233-0.133-13.029-3.875-17.362
	c-0.409-0.473-1.063,0.206-0.679,0.678c2.714,3.343,2.09,8.861,2.525,12.903c0.328,3.047,0.886,6.037,1.656,9.006
	c0.213,0.817,0.455,1.624,0.719,2.423c-1.128-1.032-2.784-0.705-3.69,0.249c0.093-2.704-0.063-5.379-0.582-7.965
	c-0.24-1.194-2.014-1.091-2.314,0c-2.52,9.139-4.735,17.736-8.874,26.362c-3.664,7.635-7.514,15.197-11.359,22.742
	c-3.528,6.924-7.666,12.851-12.409,18.966c-3.824,4.931-8.057,11.622-13.73,14.539c-2.698,1.387-1.214,5.21,1.454,5.367
	c8.573,0.503,13.957-4.444,19.049-10.792c5.281-6.582,10.185-13.333,13.658-21.058c3.906-8.688,7.681-17.634,10.596-26.704
	c1.844-5.737,3.69-12.149,4.316-18.506c3.991,6.504,5.733,14.031,9.683,20.618c3.585,5.979,7.484,11.766,11.873,17.185
	c4.399,5.432,9.149,11.259,14.472,15.82c5.081,4.355,11.601,6.093,17.526,9c13.413,6.582,26.575,10.526,41.351,12.785
	c15.02,2.295,33.165,5.91,48.041,1.456c0.324-0.097,0.606-0.241,0.85-0.415c9.396,2.523,19.043,2.999,28.814,2.38
	c4.695-0.297,12.179-0.995,16.482-4.355c9.643,2.101,19.661,3.626,29.081,1.632c4.296,3.401,8.334,7.064,11.66,11.506
	c-3.099-0.722-6.522-0.472-9.595-0.483c-6.066-0.021-11.445,0.918-17.256,1.828c-5.463,0.061-10.932,0.27-16.327,0.328
	c-9.252,0.1-18.137-2.24-27.404-1.597c-4.205,0.292-8.538,1.576-12.71,1.529c-4.116-0.047-8.055-1.783-12.22-1.768
	c-4.911,0.018-9.516,1.938-14.442,1.898c-4.726-0.037-9.172-0.482-13.882,0.353c-1.634,0.29-3.29,2.003-3.612,3.612
	c-0.509,2.545-0.193,4.765-0.365,7.297c-0.202,2.973-1.68,5.594-1.811,8.622c-0.055,1.279-0.025,2.613,0.101,3.945
	c-4.458-0.668-8.419-2.369-12.969-3.094c-5.505-0.877-11.325-0.496-16.849,0.059c-4.685,0.471-9.691,1.315-13.891,3.556
	c-1.354,0.722-2.432,1.6-3.369,2.564c-0.109-1.248-0.181-2.438-0.151-3.492c0.144-5.013,1.677-10.317-0.958-15.012
	c-2.641-4.702-7.95-5.478-12.856-5.6c-5.614-0.14-11.09,0.773-16.586,1.732c-3.578,0.625-6.386-0.001-9.907-0.591
	c-4.434-0.742-8.793-0.708-13.258-0.268c-7.976,0.785-15.612,1.289-23.648,1.236c-8.653-0.057-16.937,0.93-25.526,1.612
	c-6.984,0.555-12.318,1.747-18.112,5.879c-1.51,1.076-2.977,2.198-4.316,3.412c-1.224-0.6-3.134,0.184-3.695,1.531
	c-0.281,0.676-0.64,1.322-1.062,1.945c-0.224,0.097-0.45,0.22-0.676,0.37c-3.735,2.478-6.841,5.737-9.846,9.095
	c-0.686,0.595-1.333,1.196-1.907,1.815c-1.481,1.597-2.878,3.336-4.314,5.034c-0.014,0.015-0.027,0.029-0.041,0.043
	c-0.635,0.649-1.261,1.294-1.876,1.938c0.511-3.803,1.644-7.586,2.873-11.187c2.5-7.326,5.804-14.501,8.888-21.598
	c1.568-3.607,4.062-6.069,6.521-9.089c2.488-3.057,4.371-6.549,6.914-9.566c4.745-5.629,10.612-10.184,15.917-15.272
	c-0.36,0.394-0.724,0.788-1.075,1.183c-3.706,4.18-7.487,8.204-10.761,12.725c-3.308,4.566-8.365,6.682-10.861,11.877
	c-0.89,1.85,0.951,3.977,2.89,2.89c4.906-2.752,10.214-4.716,13.714-9.369c4.668-6.205,9.613-12.127,14.681-18.044
	c4.078-4.762,7.746-8.826,9.946-14.778c2.194-5.937,5.403-12.208,5.527-18.608c0.064-3.315-4.817-3.218-5.088,0
	c-0.479,5.695-4.633,12.597-7.315,17.698c-2.36,4.491-5.935,8.296-9.449,12.043c0.217-0.847-0.877-1.709-1.68-0.966
	c-5.704,5.293-12.315,9.69-17.992,15.025c1.128-2.323,2.144-4.694,2.992-7.113c0.752-2.148-2.357-3.204-3.509-1.479
	c-4.989,7.468-9.347,15.216-14.756,22.424c-1.334,1.778-2.945,3.827-4.513,6.011c1.146-4.057,2.55-8.023,4.369-11.955
	c2.932-6.335,5.968-12.145,9.977-17.867c1.724-2.46,3.936-5.401,5.396-8.488c0.203,0.881,1.331,1.519,2.068,0.667
	c4.343-5.027,7.125-11.255,11.089-16.594c3.406-4.589,7.208-10.754,12.192-14.205c0.727,1.322,3.174,1.489,3.421-0.31
	c0.19-1.38,0.206-1.992-0.095-3.356c-0.227-1.03-1.476-1.72-2.47-1.402c-5.994,1.916-9.967,8.21-13.692,12.898
	c-4.954,6.234-7.892,12.903-11.523,19.792c0.392-1.28,0.606-2.57,0.55-3.848c-0.08-1.815-2.524-2.111-3.111-0.421
	c-1.071,3.085-4.45,5.634-6.454,8.148c-2.117,2.656-4.35,5.244-6.305,8.025c-3.879,5.517-6.673,11.831-9.22,18.052
	c-2.736,6.682-4.114,13.796-5.259,20.898c-0.996,6.182-2.032,12.83-2.289,19.148c-0.536,2.034-0.928,4.073-1.157,6.112
	c-0.154-1.796-0.213-3.652-0.235-5.685c-0.075-6.855-0.675-13.695-0.103-20.545c0.575-6.884,1.991-13.705,3.365-20.465
	c0.683-3.358,1.419-6.705,2.1-10.064c0.636-3.139,0.668-7.983,2.875-10.546c1.875-2.177-1.188-5.335-3.191-3.19
	c-4.396,4.71-4.695,13.103-6.203,19.122c-2.075,8.288-4.051,16.627-4.926,25.143c-0.515,5.014-0.677,10.229-0.619,15.413
	c-0.02-0.174-0.048-0.348-0.066-0.522c-0.77-7.215-0.49-14.428,0.204-21.633c0.752-7.8,1.101-15.643,1.946-23.433
	c0.13-1.197,2.654-21.688,3.886-21.85c2.11-0.278,2.23-3.585,0-3.407c-1.718,0.136-2.806,0.371-3.676,1.975
	c-0.768,1.415-0.602,3.75-0.84,5.18c-0.351,2.112-1.021,4.149-1.549,6.22c-2.679,10.49-3.254,21.102-4.362,31.826
	c-0.914,8.845-1.736,17.585-0.632,26.433c-0.649-1.438-1.27-2.865-1.83-4.281c-3.229-8.18-6.091-16.419-8.527-24.873
	c-5.331-18.504-6.408-38.873,1.321-56.954c3.418-7.999,8.551-15.302,13.889-22.128c5.367-6.861,11.524-14.252,18.955-18.958
	c3.374-2.137,6.876-3.574,9.883-6.289c2.976-2.687,5.28-5.307,9.215-6.577c4.256-1.375,7.875-0.392,12.14,0.458
	c4.239,0.845,7.992,0.895,12.232-0.029c1.098,0.439,2.199,0.89,3.305,1.336c-5.213,1.877-10.442,4.127-15.216,6.844
	c-5.761,3.278-11.323,6.843-17.118,10.069c-5.335,2.971-10.013,6.512-13.669,11.418c-0.84,1.128,0.812,2.73,1.938,1.938
	c9.454-6.661,19.893-11.686,29.687-17.829c4.708-2.954,9.709-5.104,14.768-7.364c2.409-1.076,4.726-1.841,7.034-2.406
	c1.261,0.365,2.531,0.673,3.814,0.896c2.285,0.394,4.013-0.491,4.89-2.22c1.385-0.111,2.79-0.199,4.251-0.267
	c-2.013,1.019-3.993,2.134-5.996,3.261c-6.61,3.721-13.311,7.098-19.514,11.495c-4.77,3.38-9.734,5.791-13.954,9.906
	c-4.922,4.801-10.504,9.733-13.402,16.107c-0.591,1.3,0.612,2.575,1.938,1.938c5.318-2.559,9.025-8.141,13.196-12.205
	c4.635-4.514,9.681-7.447,14.881-11.197c0.998-0.72,2.011-1.407,3.034-2.079c-1.779,1.891-3.515,3.826-5.215,5.791
	c-7.402,8.558-15.106,18.101-18.493,29.054c-0.634,2.049,2.127,2.9,3.246,1.369c12.616-17.266,23.733-36.676,42.828-47.724
	c0.822-0.476,1.204-1.172,1.279-1.893c2.863-1.347,5.835-2.432,9.092-2.912c3.204-0.473,1.831-5.309-1.339-4.86
	c-3.213,0.456-6.169,1.454-9.021,2.727c0.138-0.783-0.308-1.682-1.368-1.76c-1.646-0.122-3.246-0.248-4.823-0.342
	c-0.162-2.709-1.541-4.868-2.468-7.537c-1.51-4.347-2.143-9.524-2.153-14.111c-0.007-3.561,0.229-7.189,1.473-10.562
	c1.293-3.504,3.949-5.329,5.91-8.325c1.24-1.895,0.043-4.787-2.151-5.288c-10-2.282-14.544,10.072-15.302,17.8
	c-0.466,4.748-0.224,9.621,0.71,14.296c0.423,2.115,0.985,4.343,1.715,6.462c-2.808-0.863-5.556-1.92-8.408-2.562
	c-6.142-1.38-12.555-1.128-18.853-0.65c-1.726-0.087-3.515,0.034-5.401,0.435c-0.499,0.039-0.996,0.079-1.492,0.114
	c-0.783,0.058-1.377,0.38-1.794,0.829c-3.23,1.156-6.274,2.833-8.818,5.151c-3.579,3.261-6.551,5.722-10.611,8.333
	c-8.209,5.279-14.769,13.153-20.597,20.855c-5.602,7.403-10.884,15.222-14.603,23.76c-7.854,18.026-8.387,39.427-3.528,58.279
	c2.521,9.782,5.752,19.459,9.613,28.791c1.817,4.391,3.648,8.838,5.701,13.125c2.199,4.589,5.608,8.121,8.739,12.062
	c0.645,0.812,2.256,0.162,2.131-0.882c-0.069-0.566-0.159-1.13-0.262-1.694c0.474,0.399,0.972,0.772,1.517,1.082
	c0.419,0.483,0.899,0.912,1.445,1.279c-0.655,1.526-0.897,3.175-0.704,4.721c-3.229-0.469-6.672-0.187-9.647,0.886
	c-12.75,4.597-17.175,19.204-15.323,31.428c1.902,12.556,10.889,22.95,24.389,22.993c7.053,0.022,12.29-3.719,17.673-7.698
	c4.3-3.179,7.334-5.764,8.743-10.163c2.434,4.318,1.854,11.241,3.752,15.87c3.095,7.547,7.176,15.122,10.776,22.458
	c5.652,11.52,14.999,22.23,24.332,31.515c-0.872,0.073-1.737,0.145-2.588,0.199c-3.955,0.253-7.897-0.216-11.844,0.279
	c-3.342,0.419-5.913,1.838-9.053,2.842c-3.847,1.23-8.064,0.388-12.054,1.086c-2.695,0.472-5.421,0.957-8.064,1.675
	c-5.28,1.434-9.707,3.875-12.326,8.863c-5.036,9.589-2.235,22.437-3.506,32.877c-0.737,6.061,0.071,13.437,1.286,19.453
	c1.322,6.545,7.044,10.673,13.386,7.479c2.784-1.402,3.553-5.322,2.067-7.881c-0.768-1.323-1.146-1.983-1.471-3.23
	c-0.643-2.481-0.538-5.174-1.247-7.695c-1.482-5.27-1.897-10.224-2.424-15.648c-0.62-6.382-3.404-18.993,3.106-23.288
	c3.271-2.158,9.026-2.887,12.871-3.311c2.761-0.305,5.528,0.182,8.289-0.353c3.013-0.584,5.56-2.288,8.5-3.085
	c6.941-1.884,15.766-0.667,23.048-2.785c3.244,2.708,6.656,5.129,10.089,7.577c2.17,3.947,4.632,7.812,6.316,11.735
	c1.326,3.089,2.772,6.146,4.372,9.118c-2.322-2.672-4.798-5.193-7.521-7.376c-6.302-5.055-14.015-7.511-21.5-3.461
	c-9.138,4.943-15.983,13.043-25.583,17.309c-1.264,0.562-2.346,2.443-2.19,3.816c0.399,3.517,1.554,6.939,1.742,10.464
	c-0.469,0.376-0.944,0.752-1.434,1.117c-6.553,4.885-11.296,10.851-16.354,17.223c-5.041,6.351-8.03,13.861-13.569,19.775
	c-5.202,5.554-10.007,13.344-13.024,20.335c-3.65,8.457-4.898,16.938-6.749,25.799c-0.818,3.917-1.837,7.635-2.131,11.652
	c-0.305,4.178,0.586,7.944,1.241,12.027c1.065,6.635,0.999,14.114,7.777,17.824c7.104,3.889,14.977-0.622,22.181-1.793
	c10.394-1.688,20.849,0.229,31.292-0.224c5.481-0.237,10.842-1.347,16.213-2.392c2.309-0.45,4.509-1.214,6.682-2.045
	c0.482,1.186,1.585,2.217,2.745,2.486c4.432,1.026,8.382,3.41,12.872,4.226c4.197,0.763,8.438,0.231,12.58-0.603
	c5.055-1.017,9.774-3.061,13.359-6.561c1.14,0.286,2.022,0.511,2.235,0.547c3.718,0.639,7.543,0.788,11.229,1.506
	c8.772,1.712,16.837,2.057,25.791,2.12c9.607,0.068,19.216,0.095,28.824,0.143c9.337,0.047,19.24,0.995,28.493-0.312
	c3.875-0.548,7.805-1.959,11.729-1.427c4.288,0.581,8.118,1.763,12.508,1.855c8.43,0.176,17.529,0.592,25.875-0.495
	c4.072-0.531,7.926-1.724,12.059-1.783c3.707-0.053,7.586,0.684,11.25-0.139c2.449-0.55,5.714-1.479,8.171-3.074
	c6.727,2.155,14.819,2.159,20.617,1.855c2.129-0.112,3.929-0.462,5.462-1.014c0.358,0.086,0.719,0.167,1.114,0.206
	c12.753,1.252,26.004,0.048,38.825,0.167c6.109,0.056,12.385-0.163,18.469,0.452c3.741,0.378,7.445,1.477,11.224,1.494
	c8.363,0.037,14.033-5.221,16.396-12.996C475.359,482.214,471.706,472.24,471.268,461.831z M388.447,335.538
	c3.055-0.358,5.363-1.408,8.573-1.248c3.422,0.171,6.726,1.026,10.098,1.57c6.277,1.012,11.934-0.51,18.178-0.856
	c2.453-0.136,4.147-0.519,5.925,0.914c1.718,1.385,3.234,3.864,4.95,5.427c0.573,0.522,0.934,0.758,0.931,0.467
	c0.172,1.069-0.265,2.601-0.203,3.601c0.177,2.821,1.542,5.39,1.741,8.172c0.198,2.773-0.624,5.347-0.152,8.143
	c0.528,3.132,0.714,1.552-0.131,4.778c-1.622,6.189-1.153,12.455-0.974,18.777c0.118,4.182-1.132,8.388-1.374,12.534
	c-4.277-3.675-8.657-7.251-12.831-10.896c-2.154-1.882-4.896-4.045-7.864-5.597c3.604-6.607,5.109-13.515-1.283-20.619
	c-3.928-4.367-9.475-6.189-14.858-8.051c-4.43-1.532-7.818-1.833-11.288-1.164c-0.5-0.214-1.086-0.283-1.709-0.165
	c-3.714,0.697-6.916,2.799-9.709,5.614c-1.338-0.834-2.663-1.033-3.77-1.667c-2.027-1.16-3.284-2.191-5.656-2.735
	c-1.1-0.252-2.185-0.391-3.268-0.504c-0.005-0.354-0.009-0.707-0.029-1.062c6.325-5.317,11.66-11.717,16.742-18.31
	C382.844,334.544,384.863,335.958,388.447,335.538z M403.381,151.319c-0.788-0.479-1.61-0.912-2.452-1.318
	c-0.247-0.805-0.861-1.51-1.855-1.827c-2.197-0.699-4.453-1.146-6.732-1.5c-4.245-1.486-8.431-3.041-11.724-5.743
	c-0.989-0.811-2.417,0.57-1.425,1.425c1.234,1.064,2.499,2.092,3.78,3.099c-1.734-0.242-3.459-0.526-5.162-0.917
	c-7.591-1.744-15.293-2.681-22.973-3.909c-7.332-1.172-13.986-4.531-21.085-6.545c-3.161-0.897-6.225-1.573-9.015-3.38
	c-2.077-1.345-2.944-2.58-5.383-2.933c-1.245-0.179-1.832,1.634-0.536,1.944c2.33,0.557,4.95,4.658,6.899,6.247
	c2.546,2.077,5.357,3.8,8.186,5.452c4.556,2.659,9.059,5.135,13.894,6.948c-1.256-0.114-2.441-0.22-3.505-0.289
	c-9.863-0.639-19.111-1.434-28.436-5.035c-8.125-3.139-15.085-8.296-23.447-10.794c-6.413-1.914-11.656-4.791-16.519-8.543
	c9.864,2.939,19.455,3.823,29.793,2.362c1.678-0.237,1.667-3.13,0-3.379c-18.406-2.754-38.278-5.433-54.843-14.689
	c-7.623-4.26-15.409-9.414-21.488-15.712c-5.883-6.094-12.92-15.888-14.055-24.43c-0.372-2.801-4.829-2.852-4.464,0
	c1.159,9.051,6.849,17.292,12.163,24.504c5.663,7.684,13.644,13.486,21.56,18.656c7.415,4.841,15.532,7.629,23.82,10.31
	c2.11,3.372,4.337,6.391,6.893,9.073c-10.793-2.622-20.464-7.146-30.46-12.076c-9.956-4.91-19.363-10.803-27.696-18.176
	c-7.925-7.011-14.843-15.022-20.392-24.04c-3.127-5.082-5.852-10.458-7.844-16.09c-1.648-4.658-3.706-10.394-3.961-15.49
	c6.312-3.894,11.814-10.099,17.847-13.803c0.371-0.227,0.75-0.442,1.128-0.66c0.386-0.111,0.757-0.305,1.087-0.612
	c3.971-2.166,8.243-3.851,12.495-5.32c0.354-0.123,0.699-0.257,1.047-0.388c0.63-0.125,1.259-0.248,1.882-0.371
	c6.161-1.213,11.866-3.195,17.824-5.135c6.156-2.004,12.447-3.654,18.823-4.787c8.187-1.456,16.262-1.071,24.482-1.807
	c14.99-1.342,29.302-1.697,44.107,1.784c6.638,1.56,12.86,4.149,19.186,6.628c5.973,2.341,10.303,8.575,14.725,13.065
	c8.477,8.606,16.525,17.735,27.936,22.474c6.833,2.838,13.517,2.843,20.763,3.343c6.371,0.44,12.656,2.539,18.39,5.325
	c13.443,6.533,19.496,17.653,24.32,31.073c1.908,5.309,4.046,10.222,4.082,15.965c0.048,7.936-1.78,15.915-2.123,23.866
	c-0.319,7.43-1.191,15.871-4.635,22.579c-3.256,6.34-8.386,11.49-11.449,17.961c-2.416,5.102-3.549,10.564-4.057,16.119
	c-2.151-1.748-4.133-3.587-6.053-5.516c-1.191-7.522-3.96-14.86-7.774-20.677C415.102,159.763,409.344,154.945,403.381,151.319z
	 M288.854,182.476c0.326-1.519,0.22-3.05,0.179-4.574c3.963-0.104,7.945,0.491,11.907,0.055c4.362-0.479,8.452-2.237,12.898-1.674
	c3.986,0.505,7.493,1.782,11.588,1.466c4.244-0.328,8.367-1.248,12.642-1.417c9.188-0.361,18.251,1.928,27.521,1.892
	c10.244-0.039,20.707,0.703,30.901-0.354c1.35-0.14,2.394-0.655,3.165-1.363c0.664-0.007,1.329-0.02,1.989-0.009
	c1.897,0.031,1.95-0.249,2.449,0.844c0.576,1.263-0.149,4.643-0.162,6.053c-0.053,5.181-0.147,10.367-0.609,15.531
	c-0.673,7.527-2.836,14.676-4.355,22.041c-0.984,4.772-1.733,11.182-5.297,14.84c-2.105,2.16-4.621,2.003-7.461,2.315
	c-4.765,0.523-9.315,1.506-14.129,1.61c-9.305,0.2-18.089-1.121-27.333-1.581c-9.441-0.471-18.938,0.536-28.357-0.319
	c-4.239-0.385-9.331-0.667-13.3-2.336c-3.437-1.444-5.26-4.92-6.572-8.258c-1.787-4.549-2.706-9.773-2.575-14.634
	c0.128-4.764-1.99-8.401-2.261-12.928c-0.254-4.265-0.596-5.974-2.368-9.756c-0.609-1.301-1.123-2.647-1.591-4.012
	C288.144,184.78,288.598,183.664,288.854,182.476z M109.917,193.715c2.588-4.559,9.28-6.881,14.085-7.52
	c12.92-1.721,25.6-1.696,38.586-2.112c6.076-0.195,12.02-1.6,18.083-1.9c6.119-0.302,12.077,2.191,18.119,1.29
	c4.88-0.727,9.394-2.097,14.367-2.37c1.359-0.075,5.658-0.802,6.738,0.187c1.256,1.149,0.597,4.122,0.482,5.824
	c-0.391,5.739,0.407,11.039,1.209,16.72c0.472,3.338,0.499,6.762,1.208,10.066c0.167,0.779,0.42,1.589,0.682,2.413
	c0.077,2.43,0.335,4.89,0.607,7.354c-0.037,0.086-0.068,0.173-0.109,0.258c-0.292,0.584-0.1,1.239,0.313,1.627
	c0.44,4.178,0.745,8.339-0.02,12.345c-1.245,6.518-7.734,6.69-13.313,6.639c-6.434-0.059-12.861-0.351-19.293-0.464
	c-5.714-0.101-10.621,1.23-16.18,1.993c-7.49,1.027-15.177-0.643-22.708,0.17c-6.357,0.686-11.417,0.401-17.732-0.417
	c-4.802-0.621-11.635,1.106-16.118-0.571c-5.567-2.083-4.503-11.445-4.518-16.149c-0.018-6.237-0.805-12.249-2.181-18.337
	C111.196,206.186,107.377,198.19,109.917,193.715z M162.801,335.514c-3.456-2.477-7.165-4.559-10.509-7.204
	c-6.701-5.303-12.079-11.909-18.157-17.862c-6.526-6.394-12.175-12.627-16.382-20.813c-1.924-3.744-3.599-7.577-5.908-11.111
	c-2.198-3.365-4.771-6.544-6.477-10.208c-2.236-4.807-3.767-10.123-8.13-13.561c-0.263-0.208-0.534-0.324-0.799-0.381
	c0.011-0.114,0.028-0.22,0.038-0.337c0.176-2.1-1.279-4.115-2.966-5.173c-2.908-1.822-6.394-0.824-8.195,2.149
	c-1.798,2.966-1.633,4.513-4.55,6.791c-6.676,5.213-13.736,9.892-21.896,4.281c-7.759-5.336-8.182-19.331-3.423-26.75
	c3.11-4.847,7.69-7.721,13.512-7.65c6.035,0.074,7.645,3.508,9.754,8.411c0.342,0.796,1.428,0.428,1.666-0.217
	c1.236-3.338,1.105-6.146,0.072-8.414c0.289-0.166,0.577-0.353,0.867-0.574c0.833-0.639,1.451-1.344,1.885-2.101
	c1.025-0.773,1.903-1.717,2.499-2.83c1.215-1.439,1.521-3.825,0.473-5.425c2.3-2.77,4.995-5.274,7.329-7.988
	c1.806-2.1,3.729-4.341,5.55-6.668c0.854,4.734,2.593,9.454,3.563,13.977c1.71,7.979,0.668,15.92,1.935,23.897
	c0.923,5.809,3.504,11.654,8.992,14.412c6.332,3.181,14.08,0.844,20.841,1.461c3.305,0.301,6.581,0.969,9.91,1.003
	c4.43,0.044,8.61-1.226,12.99-1.642c8.105-0.769,15.979-0.118,23.977-1.816c9.072-1.927,18.633-0.656,27.839-0.256
	c6.805,0.297,14.703,0.312,19.889-4.871c4.586-4.582,4.554-11.103,4.452-17.132c-0.077-4.616,0.396-9.333-0.113-13.925
	c-0.211-1.913-0.821-3.47-1.544-4.943c0.025-2.612-0.226-5.334-0.547-8c1.831-1.124,3.567-2.44,5.768-3.461
	c4.313-2,9.246-2.454,13.924-2.616c5.312-0.184,10.236-0.3,15.327,1.407c4.702,1.576,8.903,2.416,13.891,2.498
	c0.799,0.014,1.606-0.204,2.326-0.586c0.362-0.069,0.716-0.217,1.038-0.415c-0.025,2.064,0.623,3.579,1.218,5.553
	c1.021,3.384,0.402,5.578,0.463,8.946c0.092,5.034,1.102,10.421,2.859,15.119c2.97,7.939,7.72,13.282,16.187,15.085
	c11.985,2.553,23.826,1.995,35.977,2.36c11.417,0.342,22.358,2.344,33.842,2.03c5.287-0.145,10.489-1.279,15.743-1.788
	c3.696-0.358,7.068-1.388,9.946-3.827c5.279-4.473,7.361-11.492,8.834-18.003c2.062-9.11,4.557-18.093,5.459-27.417
	c0.315-3.256,0.45-6.513,0.538-9.773c0.405,0.858,0.773,1.648,1.098,2.333c0.844,5.189,1.689,10.407,3.51,15.516
	c0.071,0.198,0.176,0.36,0.27,0.533c0.131,0.043,0.264,0.087,0.398,0.155c0.747,0.376,1.483,0.773,2.228,1.154
	c0.075-0.133,0.163-0.259,0.26-0.378c0.523,2.852,3.971,4.326,6.244,2.138c0.312-0.3,0.611-0.598,0.901-0.896
	c0.624,0.273,1.246,0.549,1.873,0.815c0.26-0.043,0.52-0.086,0.78-0.13c2.864-3.139,5.874-6.147,8.925-9.119
	c0.828-0.122,1.73-0.179,2.727-0.162c4.653,0.081,6.652,0.362,8.691,4.545c1.676,3.439,3.92,6.426,2.975,10.263
	c-1.525,6.193-2.658,16.554-8.57,20.153c-7.472,4.549-13.711,0.084-15.547-7.447c-1.596-6.547-10.201-4.378-10.762,1.379
	c-0.1-0.068-0.203-0.128-0.302-0.195c-0.231,0.778-0.464,1.554-0.726,2.319c-2.758,8.071-5.181,16.112-8.229,24.132
	c-5.455,14.354-11.09,28.337-19.306,41.383c-7.65,12.151-16.962,23.832-26.319,34.726c-10.084,11.739-22.095,18.241-36.418,23.693
	c-6.629,2.523-13.276,4.244-20.406,4.221c-3.648-0.011-7.17-0.361-10.81,0.079c-3.52,0.425-6.862,1.45-10.413,1.628
	c-15.815,0.79-32.642,0.833-48.394-0.836c-16.164-1.713-31.598-7.074-46.596-13.037c-6.786-2.698-13.468-6.156-20.301-8.603
	C168.782,338.232,165.989,337.8,162.801,335.514z M353.322,358.356c-0.941,2.913-2.106,5.753-3.678,8.572
	c-3.212,5.761-7.101,11.112-10.375,16.836c-6.776,11.845-15.482,21.4-29.203,24.861c-5.164,1.302-13.263,0.366-18.335-1.286
	c-4.619-1.505-9.584-5.265-12.863-8.807c-3.832-4.138-4.813-10.302-8.278-14.912c-2.102-2.797-1.616-5.115-2.332-8.316
	c-0.049-0.221-0.108-0.425-0.168-0.628c2.516-0.017,5.029-0.037,7.533-0.043c7.751-0.02,14.731-0.172,22.312-1.558
	c8.204-1.499,16.479-0.108,24.757-2.127C332.853,368.468,343.822,364.084,353.322,358.356z M144.629,487.491
	c-0.643,1.854-1.341,3.609-1.995,5.353c-2.825-0.468-5.61-0.759-8.979-0.262c-4.699,0.694-9.306,1.922-14.054,2.276
	c-9.481,0.705-18.953-1.148-28.436-0.589c-4.815,0.284-9.88,0.859-14.51,2.279c-1.328,0.408-3.351,1.602-4.738,1.649
	c-2.39,0.082-1.235,0.334-2.086-1.624c-0.804-1.849-0.557-4.592-0.951-6.57c-0.355-1.784-1.03-3.512-1.327-5.303
	c-0.71-4.28,0.066-8.446,0.78-12.662c1.631-9.627,1.753-19.022,6.601-27.899c1.95-3.571,4.202-7.096,6.344-10.556
	c2.214-3.577,5.567-6.201,7.909-9.706c2.266-3.39,3.741-7.217,5.963-10.636c2.443-3.759,5.459-7.227,8.235-10.743
	c2.777-3.514,5.8-6.33,9.16-9.246c1.943-1.685,5.073-6.212,7.577-7.399c3.019,4.584,5.366,9.873,7.366,13.88
	c2.61,5.224,5.619,10.261,8.119,15.538c2.574,5.433,4.081,11.297,5.855,17.024c3.671,11.842,5.153,23.647,5.19,36.027
	C146.674,474.747,146.757,481.346,144.629,487.491z M181.547,476.542c-1.25,5.494-1.133,12.666-4.117,17.798
	c-3.373,0.849-5.643,2.421-5.675,5.132c-3.228,1.575-7.232,2.429-10.509,2.747c-3.626,0.351-6.841-0.738-10.091-1.865
	c2.378-0.993,2.036-3.98,0.294-5.496c1.427-3.184,2.848-6.376,3.51-9.871c1.252-6.603,1.2-13.392,1.138-20.086
	c-0.135-14.298-3.428-27.368-7.774-40.889c-3.878-12.061-10.148-23.541-16.522-34.463c-3.159-5.412-8.172-11.186-14.269-13.703
	c6.441-3.596,11.904-8.302,18.149-12.549c4.115-2.798,7.183-3.92,11.756-1.295c3.449,1.981,6.298,5.127,8.885,8.087
	c6.464,7.399,12.137,15.603,16.774,24.266c1.27,2.371,2.234,5.023,3.743,7.251c0.764,1.128,2.056,2.113,2.707,3.284
	c2.122,3.81,3.413,8.881,5.181,12.942c4.144,9.52,3.719,19.648,2.092,29.718C185.242,457.332,183.745,466.881,181.547,476.542z
	 M256.378,410.192c-2.09,10.239-1.218,20.712-1.999,31.088c-0.823,10.927-2.129,21.625-2.282,32.603
	c-0.069,4.914-0.267,9.815-0.41,14.72c-0.06,2.056,0.299,3.841,0.79,5.576c-6.431,0.033-12.862,0.065-19.294,0.097
	c-9.053,0.044-18.283,0.891-27.303,0.623c-2.328-0.069-10.467-1.304-18.214-1.424c1.563-5.411,1.799-11.291,3.063-16.709
	c2.215-9.493,3.491-19.047,4.963-28.678c1.283-8.393,1.999-17.098,0.186-25.471c-0.926-4.276-2.883-8.191-4.633-12.167
	c-1.103-2.502-1.795-5.269-2.851-7.823c4.26,5.428,9.742,11.283,15.704,13.964c3.474,1.562,7.123,0.765,10.692,1.777
	c3.867,1.095,7.473,1.825,11.552,1.333c7.58-0.914,15.058-5.757,20.571-10.874c2.89-2.682,4.629-5.846,6.131-9.434
	c1.191-2.842,2.58-5.428,3.993-8.047c0.133,1.058,0.291,2.124,0.423,3.233C258.098,399.999,257.468,404.849,256.378,410.192z
	 M255.073,378.66c-1.455,1.896-2.57,4.015-3.944,5.971c-3.827,5.451-6.144,13.468-11.442,17.577
	c-5.704,4.423-13.168,8.739-20.612,6.85c-3.352-0.85-5.995-0.998-9.312-1.431c-3.671-0.48-6.382-3.568-8.984-5.994
	c-5.592-5.212-9.951-11.009-13.797-17.606c-1.79-3.071-3.321-6.297-5.505-9.113c-1.933-2.492-4.34-4.539-6.341-6.969
	c-4.482-5.442-8.08-11.701-11.432-17.901c0.437,0.155,0.886,0.303,1.36,0.437c4.308,1.219,8.144,3.232,12.307,4.953
	c16.219,6.708,32.106,12.755,49.291,16.434c10.442,2.235,21.13,2.746,31.815,2.821C257.442,376.201,255.808,377.703,255.073,378.66z
	 M349.681,418.388c-1.643,6.459-4.202,12.888-5.238,19.478c-1.102,7.015-0.16,14.441-0.323,21.529
	c-0.16,6.954-0.622,13.942,0.992,20.765c0.897,3.793,1.717,8.414,3.331,12.29c-3.562,0.101-7.144-0.426-10.712-0.168
	c-4.026,0.291-7.888,1.559-11.887,1.874c-4.516,0.355-9.207,0.016-13.738,0.029c-4.432,0.013-9.081,0.429-13.468-0.286
	c-3.852-0.629-7.371-1.911-11.34-1.779c-3.967,0.131-7.8,1.486-11.733,1.862c-3.245,0.31-6.591,0.231-9.9,0.177
	c-0.479-1.756-1.085-3.514-1.181-5.559c-0.226-4.865,0.045-9.836-0.034-14.72c-0.19-11.67,1.026-23.209,1.11-34.86
	c0.041-5.631-0.237-11.266-0.348-16.896c-0.106-5.368,0.713-10.464,1.196-15.785c0.405-4.477-0.154-8.559-1.167-12.795
	c1.113,2.77,1.664,5.775,3.229,8.372c7.667,12.717,23.105,17.309,36.946,17.976c14.78,0.714,30.745-13.27,38.229-24.854
	c4.556-7.053,8.874-14.523,13.055-21.815c2.107-3.674,4.158-7.636,5.507-11.765c1.436,0.768,2.857,1.574,4.165,2.656
	c1.014,0.839,2.182,1.396,3.417,1.762c-2.327,3.883-4.275,7.877-5.968,11.09C356.837,390.221,353.351,403.964,349.681,418.388z
	 M386.052,425.705c0.09,5.378-0.881,10.462-1.452,15.779c-0.698,6.486-0.673,13.027-0.612,19.541
	c0.054,5.834,0.06,11.664,0.056,17.498c-0.001,3.171,0.023,6.345-0.033,9.516c-0.016,0.899,0.249,2.844,0.026,4.23
	c-0.783,0.516-1.413,1.16-1.857,1.902c-2.86,0.719-8.395-0.246-10.207-0.331c-3.934-0.184-10.749-0.229-13.705-3.424
	c-2.483-2.683-3.314-9.235-4.256-12.711c-1.61-5.941-1.223-12.21-1.157-18.311c0.06-5.647-0.473-11.325-0.305-16.959
	c0.179-6.005,2.471-11.821,3.981-17.59c3.476-13.27,5.643-26.853,11.463-39.395c2.972-6.405,6.249-13.823,10.698-20.035
	c0.027-0.01,0.057-0.016,0.084-0.026c1.078-0.397,2.069-1.466,2.003-2.67c0.418-0.5,0.821-1.017,1.258-1.493
	c1.121,0.467,2.292,0.799,3.529,0.772c2.777-0.059,4.565-1.361,7.417-0.742c3.882,0.844,9.848,2.798,12.782,5.527
	c4.103,3.816,2.295,8.798-0.397,12.801c-0.681,0.183-1.355,0.421-2.015,0.774c-0.624,0.334-0.59,1.102-0.204,1.584
	c0.095,0.117,0.192,0.229,0.286,0.345c-2.911,4.051-5.571,7.998-7.876,12.545C390.363,405.091,385.857,413.961,386.052,425.705z
	 M460.142,485.395c-0.435,2.688-1.075,5.648-3.725,6.491c-2.312,0.736-6.55-0.67-8.893-0.958
	c-9.423-1.162-19.229-0.507-28.706-0.382c-8.14,0.108-16.482-0.213-24.685,0.135c0.144-1.583,0.202-3.256,0.192-5.018
	c-0.082-15.629-1.805-31.873,0.555-47.384c1.119-7.362-0.117-15.238,1.723-22.397c1.75-6.813,5.868-13.739,9.29-19.862
	c1.16-2.077,2.596-4.197,4.077-6.359c8.537,8.9,18.082,16.583,26.75,25.48c11.158,11.453,21.807,29.351,21.673,45.781
	C458.328,469.122,461.482,477.138,460.142,485.395z"/>
<path d="M345.764,115.2c-5.741-0.087-11.472,0.861-17.239,0.719c-6.182-0.152-12.492-1.213-18.539-2.498
	c-7.806-1.66-15.898-3.125-23.366-5.997c-3.112-1.198-31.953-13.359-28.067-17.427c1.578-1.653-0.896-4.138-2.511-2.511
	c-8.399,8.451,19.126,20.171,23.842,22.361c7.662,3.56,15.132,5.425,23.339,7.57c13.44,3.513,29.605,6.748,43.021,1.32
	C348.031,118.012,347.935,115.233,345.764,115.2z"/>
<path d="M416.312,111.068c-6.422-8.501-17.276-13.594-26.583-18.302c-11.115-5.621-22.807-10.127-35.039-12.591
	c-11.722-2.36-23.386-4.978-35.279-6.324c-6.042-0.684-12.102-1.358-18.184-1.474c-6.505-0.125-12.889-1.073-19.357-1.247
	c-0.526-0.015-0.525,0.799,0,0.816c5.721,0.187,11.411,1.712,17.113,2.336c5.936,0.65,11.851,1.353,17.752,2.272
	c11.653,1.815,22.974,5.137,34.44,7.831c11.708,2.751,22.933,6.798,33.637,12.304c9.993,5.14,19.003,11.678,28.741,17.137
	C415.173,114.733,417.597,112.769,416.312,111.068z"/>
<path d="M351.495,65.366c4.529,1.051,8.616,3.227,12.825,5.142c8.149,3.708,15.619,8.3,23.332,12.833
	c8.352,4.909,15.085,10.8,22.143,17.38c3.051,2.844,6.015,5.791,8.651,9.026c2.741,3.363,4.847,6.694,8.649,8.951l0.001,0.001
	c1.8,3.424,3.659,6.812,5.757,10.042c4.422,6.81,6.766,14.95,11.531,21.452c1.644,2.244,5.081,0.945,4.518-1.904
	c-1.642-8.322-5.061-16.208-9.543-23.35c-5.334-8.501-9.537-17.655-14.935-26.131c-4.632-7.272-10.227-14.086-16.525-19.975
	c-5.653-5.287-11.245-11.554-18.474-14.592c-2.559-1.076-4.45,3.359-1.904,4.518c7.145,3.252,12.983,10.934,18.191,16.696
	c3.198,3.537,6.112,7.306,8.804,11.23c-0.118-0.108-0.236-0.221-0.354-0.329c-6.693-6.08-12.942-11.81-20.873-16.239
	c-7.243-4.045-14.471-8.698-22.114-11.931c-4.4-1.861-8.791-3.847-13.269-5.527c-3.993-1.498-8.902-1.356-12.328-3.96
	c-1.849-1.404-4.325,1.771-2.5,3.241C345.777,64.115,348.133,64.586,351.495,65.366z"/>
<path d="M239.918,437.384c-1.27,0.414-2.316,1.03-3.039,2.219c-0.552,0.909-0.71,1.812-0.584,2.729
	c0.001,0.028-0.005,0.056-0.002,0.085c0.001,0.072,0.012,0.147,0.018,0.221c-0.009,0.047-0.025,0.092-0.033,0.138
	c-0.172,0.961-0.184,1.933,0.144,2.837c0.14,0.949,0.623,1.794,1.56,2.328c0.281,0.161,0.611,0.299,0.925,0.408
	c1.965,1.127,4.613-0.047,5.71-1.822c1.267-2.051,1.307-5.126,0.09-7.194C243.792,437.779,241.694,436.805,239.918,437.384z"/>
<path d="M239.788,468.424c-0.557-0.721-1.353-1.355-2.266-1.564c-1.961-0.446-3.829,0.324-4.927,2.005
	c-0.592,0.906-0.656,1.956-0.788,2.998c-0.124,0.988,0.569,2.437,1.279,3.088c0.721,0.662,1.533,1.07,2.508,1.202
	c2.233,0.3,4.062-1.052,4.792-3.128c0.217-0.619,0.415-1.296,0.339-1.957C240.61,470.069,240.422,469.243,239.788,468.424z"/>
<path d="M107.496,424.708c-3.905,2.473-8.058,3.808-12.178,5.755c-3.217,1.521-6.572,4.067-4.891,7.987
	c0.729,1.698,2.911,1.412,4.052,0.522c5.035-3.924,10.867-6.464,15.721-10.76C112.097,426.536,109.632,423.355,107.496,424.708z"/>
<path d="M102.339,440.267c-1.47,0.687-3.053,0.764-4.582,1.235c-1.257,0.387-2.352,1.028-3.544,1.559
	c-1.775,0.79-3.701,1.187-5.442,2.063c-3.182,1.601-6.382,6.048-2.718,8.994c1.267,1.019,2.773,0.859,3.732-0.48
	c0.613-0.858,0.919-1.773,1.731-2.438c0.941-0.77,2.323-1.143,3.423-1.633c1.438-0.641,2.655-1.608,4.058-2.287
	c1.978-0.956,4.131-1.246,6.078-2.33C108.172,443.227,105.454,438.811,102.339,440.267z"/>
<path d="M97.243,455.929c-1.25,0.724-2.253,1.591-3.325,2.537c-1.339,1.183-2.358,1.251-4.067,1.556
	c-2.972,0.53-5.264,2.516-7.491,4.421c-2.55,2.18,0.16,6.911,3.336,5.732c1.407-0.523,2.574-1.189,3.749-2.12
	c1.318-1.046,2.213-1.268,3.827-1.693c3.17-0.837,4.473-3.481,7.074-5.127C103.673,459.127,100.684,453.936,97.243,455.929z"/>
<path d="M299.106,464.725c-0.205,3.497-2.035,5.78-3.036,8.907c-0.88,2.747,0.237,6.548,3.78,6.268c2-0.158,3.857-2.371,2.612-4.334
	c-0.014-0.063-0.029-0.127-0.02-0.177c0.177-0.875,0.419-1.729,0.589-2.605c0.516-2.65,1.008-5.35,0.922-8.059
	C303.857,461.591,299.288,461.62,299.106,464.725z"/>
<path d="M310.578,469.64c0.102,1.516-0.748,2.357-1.653,3.51c-1.439,1.837-2.209,3.55-2.414,5.89
	c-0.112,1.274,0.775,2.421,1.767,3.079c-0.977-0.65-0.686-0.366,0.068,0.215c0.312,0.241,0.679,0.441,1.067,0.544
	c0.763,0.203,1.415,0.088,2.072-0.324c0.082-0.052,0.397-0.387,0.638-0.65c-0.573,0.646,1.004-1.011,1.035-1.065
	c0.361-0.617,0.504-1.401,0.789-2.021c1.407-3.068,3.48-5.576,3.111-9.181C316.641,465.566,310.294,465.429,310.578,469.64z"/>
<path d="M129.688,268.132c-0.233,4.885-9.102,11.318-3.84,15.949c0.836,0.735,2.068,0.629,2.676-0.345
	c1.424-2.282,2.005-5.109,3.261-7.581c1.295-2.55,2.397-5.124,2.462-8.023C134.315,265.186,129.828,265.212,129.688,268.132z"/>
<path d="M143.308,279.471c1.838-2.031-1.037-4.951-3.02-3.02c-0.596,0.58-1.094,1.148-1.37,1.948
	c-0.135,0.389-0.102,1.032-0.279,1.387c-0.507,1.027-2.417,1.997-3.196,2.91c-1.662,1.948-3.486,5.808-0.467,7.484
	c0.557,0.31,1.164,0.19,1.628-0.21c1.699-1.463,2.074-4.014,3.789-5.58c0.743-0.679,1.525-1.246,2.031-2.142
	C142.865,281.473,142.755,280.082,143.308,279.471z"/>
<path d="M148.34,287.248c-0.366-0.05-0.732-0.1-1.098-0.15c-2.015-0.274-3.163,2.068-2.085,3.262
	c-0.251,0.315-0.531,0.606-0.73,0.817c-0.795,0.844-1.497,1.662-2,2.722c-0.58,1.219-0.745,2.176-0.145,3.416
	c0.378,0.783,0.955,1.656,1.973,1.626c0.452-0.014,0.769-0.226,1.09-0.523c0.166-0.177,0.318-0.365,0.457-0.564
	c-0.417,0.235-0.329,0.147,0.263-0.263c0.58-0.75,1.057-1.627,1.589-2.421c1.192-1.778,2.468-3.728,2.191-5.944
	C149.744,288.421,149.287,287.377,148.34,287.248z"/>
<g>
</g>
<g>
</g>
<g>
</g>
<g>
</g>
<g>
</g>
<g>
</g>
<g>
</g>
<g>
</g>
<g>
</g>
<g>
</g>
<g>
</g>
<g>
</g>
<g>
</g>
<g>
</g>
<g>
</g>
</svg>
